<svg width="26" height="17" viewBox="0 0 26 17" fill="none" xmlns="http://www.w3.org/2000/svg">
<path d="M5.41667 17H14.0833C17.0701 17 19.5 14.6168 19.5 11.6875V5.3125C19.5 2.38319 17.0701 0 14.0833 0H5.41667C2.42992 0 0 2.38319 0 5.3125V11.6875C0 14.6168 2.42992 17 5.41667 17ZM26 4.58256V12.359C26 13.1633 25.545 13.8858 24.8116 14.2449C24.505 14.3947 24.1757 14.4691 23.8485 14.4691C23.3924 14.4691 22.9417 14.3257 22.5604 14.0452C22.5203 14.0154 21.6667 13.1846 21.6667 13.1846V3.7655C21.6667 3.7655 22.5182 2.92719 22.5604 2.89637C23.2148 2.414 24.076 2.33644 24.8116 2.69662C25.5472 3.05681 26 3.77825 26 4.58256Z" fill="#666666"/>
</svg>
