<svg width="14" height="16" viewBox="0 0 14 16" fill="none" xmlns="http://www.w3.org/2000/svg">
<path d="M13.3 2.66666H11.13C10.7951 1.11572 9.36257 0.002 7.69999 0H6.29998C4.6374 0.002 3.20487 1.11572 2.86998 2.66666H0.69999C0.313393 2.66666 0 2.96513 0 3.33331C0 3.7015 0.313393 4 0.69999 4H1.39998V12.6667C1.40231 14.5067 2.96796 15.9978 4.9 16H9.1C11.032 15.9978 12.5977 14.5067 12.6 12.6667V4H13.3C13.6866 4 14 3.70153 14 3.33334C14 2.96516 13.6866 2.66666 13.3 2.66666ZM6.30001 11.3333C6.30001 11.7015 5.98662 12 5.60002 12C5.21339 12 4.9 11.7015 4.9 11.3333V7.33334C4.9 6.96516 5.21339 6.66669 5.59999 6.66669C5.98658 6.66669 6.29998 6.96516 6.29998 7.33334V11.3333H6.30001ZM9.1 11.3333C9.1 11.7015 8.78661 12 8.40001 12C8.01342 12 7.70002 11.7015 7.70002 11.3333V7.33334C7.70002 6.96516 8.01342 6.66669 8.40001 6.66669C8.78661 6.66669 9.1 6.96516 9.1 7.33334V11.3333ZM4.31971 2.66666C4.61745 1.86819 5.41033 1.33434 6.30001 1.33331H7.70002C8.5897 1.33434 9.38259 1.86819 9.68033 2.66666H4.31971Z" fill="#F04336"/>
</svg>
