<svg width="22" height="22" viewBox="0 0 22 22" fill="none" xmlns="http://www.w3.org/2000/svg">
    <path
        d="M0.767442 11.2087C0.767442 8.86651 0.767442 7.69591 1.29953 6.72586C1.82958 5.75479 2.80065 5.15312 4.74177 3.94772L6.78828 2.67786C8.83991 1.40391 9.86623 0.767442 11 0.767442C12.1338 0.767442 13.1591 1.40391 15.2117 2.67786L17.2582 3.94772C19.1993 5.15312 20.1704 5.75479 20.7015 6.72586C21.2326 7.69591 21.2326 8.86651 21.2326 11.2077V12.7651C21.2326 16.7558 21.2326 18.7522 20.0333 19.9924C18.8351 21.2326 16.9052 21.2326 13.0465 21.2326H8.95349C5.09479 21.2326 3.16493 21.2326 1.9667 19.9924C0.767442 18.7522 0.767442 16.7568 0.767442 12.7651V11.2087Z"
        stroke="#212429" stroke-width="1.5" />
    <path d="M11 14.0698V17.1395" stroke="#212429" stroke-width="1.5" stroke-linecap="round" />
</svg>
