<svg width="342" height="127" viewBox="0 0 342 127" fill="none" xmlns="http://www.w3.org/2000/svg">
<mask id="mask0_343_1276" style="mask-type:alpha" maskUnits="userSpaceOnUse" x="0" y="0" width="342" height="166">
<rect width="342" height="166" rx="14.5922" fill="#4A8802"/>
</mask>
<g mask="url(#mask0_343_1276)">
<g style="mix-blend-mode:overlay">
<path d="M2.80245 145.714C3.89193 128.228 19.2225 115.455 31.5182 105.18L32.3742 104.442C33.7749 103.363 37.1212 100.411 36.8099 96.8915C36.6543 94.7343 35.1757 92.8041 32.452 91.101C30.8178 90.0792 29.3392 89.1141 27.8606 88.2625C21.4793 84.2886 16.4988 81.1095 8.71679 77.1924C5.83744 75.7732 3.03591 74.4107 0.312195 73.105V73.3321C3.03591 74.581 5.75962 75.9435 8.56115 77.3627C16.3432 81.2798 21.4015 84.4589 27.705 88.4328C29.1057 89.3411 30.6621 90.3062 32.2964 91.2713C34.9423 92.9176 36.4208 94.8478 36.5765 96.9483C36.8099 100.411 33.6193 103.307 32.1407 104.385L31.2847 105.123C18.9891 115.398 3.65847 128.172 2.49117 145.77C2.33552 147.644 1.40168 148.779 0.234375 149.177V149.404C1.55732 148.949 2.64681 147.757 2.80245 145.714Z" fill="white"/>
</g>
<g style="mix-blend-mode:overlay">
<path d="M8.24822 145.884C9.25989 129.761 23.8901 117.556 35.641 107.791L36.497 107.053C38.9873 105.009 40.9328 103.193 42.4114 101.66C44.2012 99.7298 47.6253 96.2101 39.6098 90.5331C30.9718 84.4587 21.6333 78.8385 11.828 73.8995C7.85912 71.8558 3.9681 70.0392 0.310547 68.4496V68.6767C3.9681 70.323 7.70348 72.0829 11.6723 74.0699C21.4777 79.0088 30.8161 84.629 39.4542 90.7034C47.314 96.2669 44.0456 99.7298 42.2557 101.603C40.7771 103.136 38.8316 104.953 36.3414 106.996L35.4854 107.734C23.7345 117.556 9.10425 129.761 8.09258 145.94C7.62566 153.434 5.75797 157.805 2.33388 159.679C1.63349 160.076 1.01093 160.246 0.388367 160.303V160.474C1.01093 160.417 1.71131 160.246 2.48952 159.792C5.91361 157.862 7.7813 153.434 8.24822 145.884Z" fill="white"/>
</g>
<g style="mix-blend-mode:overlay">
<path d="M103.267 30.5842C101.788 26.2129 89.5705 25.0775 75.4072 23.715C71.9053 23.3744 68.3256 23.0338 64.8236 22.6364C49.3374 20.8765 35.1741 15.1995 21.3999 9.69288C14.5517 6.96793 7.54784 4.12944 0.310547 1.85864V2.3128C7.3922 4.58359 14.3182 7.36531 21.0886 10.0903C34.8628 15.5969 49.1039 21.2739 64.668 23.0906C68.1699 23.4879 71.8275 23.8286 75.2516 24.1692C88.6367 25.4181 101.244 26.667 102.644 30.7545C103.734 33.9336 98.0529 38.759 85.2126 45.5714C67.2361 55.052 52.1389 59.48 37.6643 59.48C29.4932 59.48 21.322 58.004 13.54 55.052C8.63733 53.2353 4.35721 51.0213 0.310547 48.7505V49.2614C4.35721 51.3619 8.55951 53.5192 13.3844 55.3358C21.322 58.2878 29.4932 59.8206 37.82 59.8206C52.3724 59.8206 67.5473 55.3926 85.6795 45.8552C98.8311 38.8158 104.434 33.9904 103.267 30.5842Z" fill="white"/>
</g>
<g style="mix-blend-mode:overlay">
<path d="M2.33388 120.166C4.43503 117.498 7.15874 115.057 9.80463 112.673C13.6178 109.267 17.5088 105.747 19.61 101.432C23.3454 93.8253 16.0303 90.3055 8.32604 86.5587C7.62566 86.2181 6.92528 85.8775 6.14707 85.5369C4.90195 84.9124 3.65682 84.2879 2.48952 83.7202C1.94477 83.4364 1.16657 83.039 0.310547 82.5848V82.8119C1.16657 83.2661 1.78913 83.6067 2.33388 83.8905C3.50118 84.515 4.74631 85.0827 5.99143 85.7072C6.69182 86.0478 7.3922 86.3884 8.1704 86.729C15.7968 90.4191 23.0341 93.9388 19.3765 101.432C17.2754 105.747 13.3844 109.267 9.57117 112.616C6.92528 115 4.20156 117.442 2.10042 120.11C1.47785 120.904 0.855289 121.983 0.310547 123.062V123.516C0.388367 123.402 0.466188 123.289 0.466188 123.175C1.16657 122.04 1.71131 120.961 2.33388 120.166Z" fill="white"/>
</g>
<g style="mix-blend-mode:overlay">
<path d="M122.334 14.5751C121.011 14.5751 119.066 15.1995 117.743 18.1516C116.186 21.501 119.221 22.239 122.412 23.0905C122.957 23.2609 123.579 23.3744 124.124 23.5447C125.369 23.8853 126.459 24.1124 127.237 24.1124C128.171 24.1124 128.793 23.8853 129.182 23.4312C130.35 22.0687 128.482 19.0031 127.626 17.7542C126.147 15.7672 124.202 14.5751 122.334 14.5751ZM128.793 23.3176C128.171 24.0556 126.614 24.0556 124.202 23.3176C123.657 23.1473 123.035 22.977 122.49 22.8635C119.377 22.0687 116.653 21.3874 118.132 18.2651C119.144 16.0511 120.622 14.8589 122.412 14.8589C124.124 14.8589 125.914 15.9943 127.315 17.9245C128.949 20.4224 129.571 22.4093 128.793 23.3176Z" fill="white"/>
</g>
<g style="mix-blend-mode:overlay">
<path d="M21.4002 107.677C21.7114 107.393 22.1005 107.053 22.4897 106.769C27.4702 102.454 32.6841 98.0262 26.7698 92.6898C22.1784 88.6024 15.3302 85.1962 9.26019 82.1874C8.01507 81.5629 6.84776 80.9952 5.68046 80.3708C4.90225 79.9734 3.81277 79.4057 2.56764 78.7812C1.86726 78.4406 1.16688 78.0432 0.388672 77.5891V77.8161C1.08906 78.2135 1.78944 78.5541 2.48982 78.8948C3.73495 79.576 4.74661 80.1437 5.60264 80.5411C6.76994 81.1088 7.93725 81.7333 9.18237 82.3577C15.2524 85.3665 22.1006 88.7159 26.6141 92.8034C32.3728 98.0262 27.2367 102.397 22.334 106.655C21.9449 106.939 21.6336 107.28 21.2445 107.564C16.8866 111.367 11.3613 116.42 6.92558 122.04C4.27969 125.446 2.0229 129.079 0.388672 132.769V133.337C2.10072 129.477 4.35751 125.73 7.15904 122.153C11.4392 116.533 17.0422 111.481 21.4002 107.677Z" fill="white"/>
</g>
<g style="mix-blend-mode:overlay">
<path d="M16.9658 50.2259C22.8801 52.4399 27.9384 53.4617 32.7633 53.4617C37.8994 53.4617 42.413 52.3264 47.627 51.0207C50.5841 50.2826 54.0082 49.4311 57.8214 48.7499C59.767 48.4092 61.479 48.3525 62.5685 48.3525C63.3467 48.3525 64.0471 48.3525 64.7475 48.4092C65.37 48.4092 65.9926 48.466 66.6151 48.466C69.8058 48.466 72.296 47.8983 75.0197 45.2301C76.8874 43.4135 77.5878 41.9942 78.2104 40.7453C79.1442 38.8719 79.8446 37.3959 83.8913 35.2954C84.9029 34.7277 86.3815 34.3303 87.8601 33.9329C90.1947 33.2517 92.1402 32.684 92.218 31.7189C92.2959 30.9241 91.0507 30.0726 88.2492 28.9372C84.9807 27.6315 80.2337 27.4612 76.0314 27.4612C74.1637 27.4612 72.2182 27.5179 70.3505 27.5179C68.4828 27.5747 66.4595 27.5747 64.5918 27.5747C60.3895 27.5747 57.4323 27.3476 55.0977 26.8935C41.557 24.2821 28.7944 19.1728 17.5883 14.688C11.674 12.3604 5.99308 10.0328 0.312195 8.10266V8.44328C5.91526 10.3735 11.5961 12.6442 17.4327 14.9718C28.6388 19.4566 41.4013 24.5659 54.9421 27.2341C57.3545 27.6883 60.3117 27.9153 64.5918 27.9153C66.4595 27.9153 68.4828 27.8586 70.3505 27.8586C72.2182 27.8018 74.1637 27.8018 76.0314 27.8018C80.1559 27.8018 84.8251 27.9721 88.0157 29.2778C90.5838 30.2997 91.8289 31.0944 91.7511 31.7757C91.6733 32.5705 89.7278 33.1382 87.6266 33.7059C86.148 34.1032 84.6695 34.5574 83.58 35.1251C79.4555 37.2824 78.6773 38.8719 77.7435 40.6885C77.1209 41.9375 76.4205 43.2999 74.6306 45.1166C71.9847 47.728 69.5723 48.2389 66.5373 48.2389C65.9148 48.2389 65.2922 48.2389 64.6696 48.1822C63.9692 48.1822 63.2689 48.1254 62.4907 48.1254C61.4012 48.1254 59.6113 48.1822 57.6658 48.5228C53.8526 49.204 50.4285 50.0556 47.4713 50.7936C42.2574 52.0993 37.7438 53.1779 32.6855 53.1779C27.8606 53.1779 22.8801 52.156 17.0436 49.942C11.674 47.9551 6.84911 45.2869 2.17988 42.6755C1.55732 42.3349 0.856938 41.9375 0.234375 41.5969V41.9375C0.779118 42.2781 1.40168 42.5619 1.94642 42.9026C6.69346 45.514 11.5183 48.1822 16.9658 50.2259Z" fill="white"/>
</g>
<g style="mix-blend-mode:overlay">
<path d="M20.5438 45.1173C26.3025 47.2745 31.9056 48.2964 37.82 48.2964C41.0884 48.2964 48.1701 47.3313 54.3179 45.6849C59.6875 44.2657 66.1466 41.8814 66.1466 38.7023C66.1466 34.9555 56.1856 32.855 50.2712 31.606C48.9483 31.3222 47.8588 31.0951 47.0806 30.9248C36.4192 28.0863 25.8356 24.5666 13.8513 19.7411C9.25989 17.8677 4.74631 16.1079 0.310547 14.4615V14.6319C4.66849 16.2214 9.18207 18.038 13.6956 19.8547C25.7578 24.6801 36.3414 28.2566 47.0028 31.0951C47.781 31.3222 48.8704 31.5493 50.1934 31.7763C56.1077 33.0253 65.9131 35.069 65.9131 38.7023C65.9131 44.2089 44.5903 48.1261 37.7421 48.1261C31.9056 48.1261 26.3025 47.1042 20.6217 44.9469C15.8746 43.1871 11.361 40.6324 6.92528 38.2481C4.82413 37.0559 2.64516 35.8638 0.310547 34.6716V34.8987C2.56734 36.0341 4.66849 37.2262 6.76964 38.3616C11.2054 40.8027 15.719 43.3574 20.5438 45.1173Z" fill="white"/>
</g>
<g style="mix-blend-mode:overlay">
<path d="M23.0357 41.5975C28.0162 43.4709 32.8411 44.3792 37.8216 44.3792C42.1017 44.3792 47.7826 43.4709 49.9616 41.3704C50.8954 40.4621 51.2067 39.4403 50.7398 38.2481C49.7281 35.5231 41.8683 33.5362 36.1096 32.1169C34.2419 31.6628 32.6076 31.2654 31.6738 30.9248C24.9813 28.654 18.4443 26.0426 12.0631 23.4879L11.3627 23.2041C7.47167 21.7281 3.89193 20.3088 0.312195 18.9464V19.1167C3.81411 20.4224 7.39385 21.8984 11.0514 23.3176L11.7518 23.6015C18.1331 26.1561 24.7478 28.8243 31.4403 31.0383C32.452 31.3789 34.0862 31.7763 35.9539 32.2305C41.3235 33.5362 49.4947 35.5799 50.4285 38.2481C50.8176 39.3835 50.5841 40.3486 49.6503 41.2001C47.5492 43.1871 41.9461 44.0954 37.666 44.0954C32.7633 44.0954 27.9384 43.1871 23.0357 41.3704C18.6778 39.7241 14.3199 37.3398 10.1176 35.0122C7.08257 33.3091 3.81411 31.5492 0.234375 29.8462V30.0732C3.73629 31.7763 7.00475 33.5362 9.96192 35.1825C14.3199 37.5668 18.6778 39.9512 23.0357 41.5975Z" fill="white"/>
</g>
<g style="mix-blend-mode:overlay">
<path d="M138.443 -16.5917C138.832 -17.7271 139.221 -18.8625 139.61 -19.9979H139.221C138.832 -18.9193 138.52 -17.7839 138.131 -16.6485C137.431 -14.548 136.653 -12.3908 136.108 -10.12C134.085 -2.7399 132.373 7.0245 136.808 16.4483C138.598 20.2519 143.112 23.431 147.081 26.1559C150.583 28.597 153.695 30.7543 153.384 32.5142C153.228 33.3089 152.45 34.0469 150.894 34.7282C150.193 35.0688 148.948 35.1823 147.236 35.1823C141.244 35.1823 130.738 33.2522 122.956 31.3788C114.474 29.2783 104.046 25.9856 102.412 22.0685C101.867 20.8196 102.334 19.5139 103.657 18.2649C105.369 16.6754 107.237 15.2561 109.026 13.8937C112.606 11.2255 115.952 8.67083 118.131 4.92402C121.322 -0.469109 121.711 -6.03255 119.299 -11.7095C118.754 -13.072 118.131 -14.3777 117.587 -15.4563C116.808 -17.1027 116.186 -18.5787 115.719 -19.8844H115.33C115.797 -18.5219 116.497 -17.0459 117.275 -15.3428C117.82 -14.2074 118.365 -12.9585 118.987 -11.596C121.4 -5.97578 121.011 -0.46911 117.898 4.86725C115.719 8.55729 112.373 11.1119 108.871 13.7801C107.081 15.1426 105.213 16.5618 103.423 18.2082C102.023 19.5139 101.556 20.8763 102.1 22.2388C103.735 26.3262 114.318 29.6757 122.878 31.7761C130.738 33.7063 141.322 35.6365 147.314 35.6365C149.104 35.6365 150.427 35.4662 151.205 35.1256C152.917 34.3876 153.773 33.5928 153.929 32.6845C154.24 30.7543 151.127 28.597 147.47 26.0992C143.501 23.3742 139.065 20.2519 137.275 16.5051C132.839 7.13804 134.552 -2.51282 136.575 -9.8929C136.964 -12.334 137.742 -14.4913 138.443 -16.5917Z" fill="white"/>
</g>
<g style="mix-blend-mode:overlay">
<path d="M74.0073 116.193C73.6182 116.647 73.2291 117.101 72.9178 117.442C68.949 121.472 64.3576 125.106 59.0658 129.023C58.3654 129.534 57.665 130.101 56.8868 130.612C52.5289 133.792 48.0931 137.084 45.3694 141.001C44.3577 142.534 44.0465 143.669 44.4356 144.407C44.669 144.748 44.9803 144.975 45.4472 145.032C45.6807 145.089 45.8363 145.089 46.0698 145.089C47.0036 145.089 48.3266 144.748 49.7274 144.124C52.6067 142.875 55.3304 141.285 57.9763 139.752C60.1553 138.503 62.4121 137.198 64.6689 136.119C74.0073 131.634 80.1551 128.625 83.0345 120.224C83.657 118.464 83.9683 114.49 82.1006 112.787C81.4781 112.219 80.622 111.935 79.6104 111.935C77.3536 112.049 75.4081 114.433 74.0073 116.193ZM79.9216 112.162C80.7777 112.162 81.4781 112.446 82.0228 112.957C83.8127 114.66 83.5014 118.52 82.8788 120.224C79.9995 128.569 73.9295 131.521 64.591 136.006C62.2564 137.141 59.9996 138.39 57.8985 139.639C55.2526 141.172 52.5289 142.704 49.6495 144.01C47.9375 144.805 46.3811 145.089 45.525 144.918C45.1359 144.805 44.8247 144.635 44.669 144.351C44.2799 143.669 44.5912 142.534 45.6029 141.058C48.2488 137.198 52.7623 133.905 57.0425 130.726C57.7429 130.158 58.5211 129.647 59.2214 129.136C64.4354 125.219 69.1046 121.586 73.0735 117.555C73.3847 117.215 73.7738 116.761 74.1629 116.306C75.5637 114.603 77.5092 112.276 79.766 112.219C79.8438 112.162 79.9216 112.162 79.9216 112.162Z" fill="white"/>
</g>
<g style="mix-blend-mode:overlay">
<path d="M25.4465 38.0775C27.0029 38.6452 31.3609 39.667 34.5515 39.667C35.7188 39.667 36.5748 39.5535 37.1196 39.2696C38.3647 38.7019 38.9094 38.1342 38.7538 37.6233C38.5203 36.4311 34.9406 35.6931 32.0613 35.1254C30.8939 34.8984 29.8823 34.6713 29.2597 34.501C22.4115 32.1734 15.719 29.5052 9.25989 26.9506L8.5595 26.6667C5.75797 25.5313 3.03426 24.4527 0.310547 23.3741V23.7147C2.95644 24.7366 5.68015 25.8152 8.40386 26.8938L9.10425 27.1777C15.5633 29.7891 22.2559 32.4573 29.1041 34.728C29.7266 34.9551 30.7383 35.1254 31.9056 35.4093C34.5515 35.9202 38.1312 36.6582 38.2869 37.6801C38.3647 38.0775 37.8978 38.5884 36.8083 39.0993C36.3414 39.3264 35.4853 39.4399 34.4737 39.4399C31.4387 39.4399 27.0807 38.4181 25.6022 37.8504C21.7111 36.3744 17.5867 34.1036 13.54 31.8896C9.72681 29.7891 5.36887 27.348 0.310547 25.1907V25.5313C5.21323 27.6886 9.57117 30.0729 13.3065 32.1734C17.3532 34.3307 21.5555 36.6015 25.4465 38.0775Z" fill="white"/>
</g>
<g style="mix-blend-mode:overlay">
<path d="M13.7735 146.054C14.7073 131.351 28.6372 119.77 39.7655 110.403L40.6215 109.665C53.9288 98.5946 53.384 94.6775 47.1584 90.1927C40.3102 85.2537 29.571 77.8736 14.9408 70.4935C9.96027 67.9957 5.05759 65.6681 0.310547 63.6244V63.965C4.97977 66.0087 9.80463 68.2795 14.7073 70.7206C29.2597 78.1007 39.9989 85.4808 46.8471 90.363C52.9171 94.7342 53.384 98.4811 40.3102 109.438L39.4542 110.176C28.2481 119.543 14.3182 131.18 13.3844 145.997C12.5283 159.906 5.29105 163.993 0.310547 165.129V165.413C5.44669 164.334 12.8396 160.247 13.7735 146.054Z" fill="white"/>
</g>
<g style="mix-blend-mode:overlay">
<path d="M99.6871 -15.1153C105.057 -3.02338 107.158 3.56192 93.9284 9.18213C91.7495 10.0905 89.2592 10.7717 86.6133 11.1691C84.3565 11.5097 81.7885 11.68 79.1426 11.68C54.5513 11.68 20.7773 -3.30722 2.56734 -11.3685L1.94477 -11.6524C1.40003 -11.8795 0.855289 -12.1633 0.310547 -12.3904V-12.0498C0.777469 -11.8227 1.24439 -11.6524 1.71131 -11.4253L2.4117 -11.0847C20.6217 -3.02338 54.4735 12.0206 79.1426 12.0206C81.8663 12.0206 84.3565 11.8503 86.6911 11.4529C89.4149 11.0555 91.9051 10.3175 94.1619 9.40921C107.625 3.73223 105.446 -2.96661 100.076 -15.2289C99.3759 -16.7617 98.6755 -18.408 98.0529 -20.0543H97.6638C98.2086 -18.2945 98.9868 -16.6481 99.6871 -15.1153Z" fill="white"/>
</g>
<g style="mix-blend-mode:overlay">
<path d="M92.2942 -13.3555C94.4732 -8.47328 96.4965 -2.28537 93.3059 1.74529C91.6717 3.73223 88.8701 5.0947 84.9791 5.71917C83.1892 6.00302 81.2437 6.11656 79.1426 6.11656C56.7303 6.11656 24.1236 -8.35974 6.614 -16.1372L3.34554 -17.5564C2.33388 -18.0106 1.32221 -18.408 0.310547 -18.8054V-18.6351C1.32221 -18.2377 2.25606 -17.8971 3.1899 -17.4429L6.45836 -16.0237C23.9679 -8.2462 56.6525 6.2301 79.1426 6.2301C81.3215 6.2301 83.2671 6.11656 85.0569 5.83271C89.0258 5.20824 91.9051 3.84577 93.5393 1.80206C96.8078 -2.34214 94.7066 -8.53005 92.5277 -13.469C91.5938 -15.5695 90.66 -17.7835 89.8818 -20.0543H89.6483C90.4265 -17.7268 91.3604 -15.5127 92.2942 -13.3555Z" fill="white"/>
</g>
<g style="mix-blend-mode:overlay">
<path d="M87.1583 -12.1633C87.2362 -11.8795 87.3918 -11.6524 87.4696 -11.3685C88.7147 -8.58682 90.0377 -5.74833 87.9365 -3.02338C86.2245 -0.695816 82.7226 1.12082 78.9872 1.74529C78.5981 1.80206 78.209 1.85883 77.8199 1.85883C76.9639 1.97236 75.9522 1.97236 74.9405 1.97236C64.5126 1.97236 52.217 -2.39891 43.2676 -5.63479L41.7891 -6.14572C30.3495 -10.2331 19.2211 -15.1721 9.41578 -19.5434C9.02668 -19.7137 8.63758 -19.884 8.3263 -20.0543H7.85938C8.55976 -19.7137 9.26014 -19.4299 9.26014 -19.4299C19.0655 -15.0018 30.1938 -10.1196 41.7112 -5.97541L43.1898 -5.46448C52.1392 -2.2286 64.4348 2.14267 74.9405 2.14267C75.9522 2.14267 76.886 2.08591 77.8199 2.02913C78.209 1.97236 78.5981 1.97237 78.9872 1.9156C82.7226 1.29113 86.3023 -0.582277 88.0922 -2.90984C90.1933 -5.74833 88.9482 -8.64359 87.6253 -11.4253C87.4696 -11.7092 87.3918 -11.9362 87.314 -12.2201C86.2245 -14.718 85.135 -17.3294 84.279 -19.9976H84.0455C84.9794 -17.2726 86.0688 -14.6612 87.1583 -12.1633Z" fill="white"/>
</g>
<g style="mix-blend-mode:overlay">
<path d="M78.6764 106.712C75.2523 107.337 72.2952 110.8 69.8827 113.524C69.0267 114.49 68.2485 115.398 67.5481 116.079C63.6571 119.712 59.2992 123.005 55.0969 126.184C54.0074 127.036 52.6066 127.944 51.128 128.909C46.7701 131.861 41.4005 135.494 39.7663 138.844C38.3655 141.682 39.2215 144.35 39.9997 146.905C40.6223 149.006 41.3227 151.22 40.7779 153.547C40.4667 154.966 39.2993 156.386 38.0542 157.862C36.5756 159.622 35.0192 161.438 34.9414 163.425C34.9414 164.106 35.0192 164.731 35.3305 165.412C36.3422 167.513 37.4317 168.478 38.6768 168.478C39.9219 168.478 41.3227 167.513 43.346 165.185C45.2915 162.971 46.0697 160.36 46.7701 157.862C47.5483 155.364 48.2487 152.752 50.272 150.482C54.0074 146.167 60.6221 143.045 66.3808 140.206C66.8478 139.979 67.3925 139.752 67.8594 139.525C77.5091 134.87 85.1355 131.18 88.4818 121.245C89.4157 118.634 89.1822 111.935 85.4468 108.529C83.7348 106.826 81.4002 106.201 78.6764 106.712ZM85.2134 108.642C88.4818 111.708 89.1822 118.18 88.1705 121.132C84.8243 130.953 77.2757 134.586 67.7038 139.241C67.2369 139.468 66.7699 139.695 66.2252 139.922C60.3887 142.704 53.7739 145.883 49.9607 150.255C47.9374 152.525 47.1592 155.194 46.4588 157.748C45.7584 160.246 44.9802 162.801 43.0347 165.015C41.7118 166.604 40.0775 168.194 38.6768 168.194C37.5873 168.194 36.6535 167.229 35.6418 165.299C35.3305 164.674 35.1749 164.106 35.2527 163.425C35.3305 161.552 36.8869 159.735 38.2877 157.975C39.5328 156.499 40.7779 155.08 41.0892 153.604C41.634 151.276 40.9336 149.062 40.311 146.905C39.5328 144.237 38.7546 141.739 40.0775 138.957C41.7118 135.665 47.0814 132.031 51.3615 129.136C52.8401 128.171 54.2409 127.206 55.3303 126.354C59.5326 123.175 63.8906 119.883 67.7816 116.249C68.482 115.568 69.2602 114.66 70.1162 113.695C72.4508 110.97 75.408 107.564 78.6764 106.996C79.299 106.882 79.8438 106.826 80.3885 106.826C82.334 106.826 83.9682 107.45 85.2134 108.642Z" fill="white"/>
</g>
<g style="mix-blend-mode:overlay">
<path d="M82.2567 94.3933C80.389 92.4631 78.7548 92.1793 77.1205 91.9522C75.9532 91.7819 74.7081 91.5548 73.3073 90.8168L73.2295 90.7033C69.2607 87.4674 55.9534 76.9082 51.4398 76.9082C50.8951 76.9082 50.506 77.0217 50.1947 77.3056C49.5721 77.8733 49.65 79.0087 50.2725 80.8253C50.6616 81.9039 54.4748 83.38 58.4437 84.9128C61.7899 86.2185 65.214 87.5809 66.3813 88.546C67.393 89.4543 68.7938 90.7033 68.7159 91.1574C68.7159 91.271 68.4825 91.3277 68.1712 91.4413C67.4708 91.6684 66.4591 92.0657 67.0039 93.8824C67.393 95.1313 68.4047 96.3235 69.4941 97.5156C70.428 98.651 71.3618 99.6729 71.6731 100.695C72.6848 103.476 66.3813 108.586 62.2569 111.992C60.8561 113.127 59.6888 114.092 58.9884 114.83C55.9534 117.782 52.218 120.451 48.5605 123.062C41.4788 128.171 34.1637 133.451 31.5956 140.717C27.7824 151.561 27.0042 161.211 29.3388 169.273C30.584 173.587 34.8641 179.548 39.0664 179.548C41.6345 179.548 43.58 177.277 44.6694 172.792C49.0274 155.534 60.9339 149.801 72.3735 144.237C82.568 139.298 92.2177 134.643 96.3422 122.608C97.8986 118.066 95.4861 111.027 92.3733 107.167C90.9726 105.463 89.2605 104.442 87.5485 103.533C86.0699 102.682 84.6691 101.944 83.5796 100.695C82.8014 99.7864 82.9571 98.7646 83.1127 97.686C83.0349 96.5506 83.1905 95.3584 82.2567 94.3933ZM82.8792 100.865C84.0466 102.171 85.4473 102.966 87.0037 103.817C88.638 104.725 90.35 105.691 91.673 107.337C94.7079 111.14 97.1204 118.01 95.564 122.494C91.4395 134.416 81.9454 139.014 71.8288 143.897C60.2335 149.517 48.2492 155.307 43.8912 172.736C42.8018 176.937 41.0897 179.151 38.8329 179.151C35.331 179.151 30.9731 173.758 29.6501 169.159C27.3155 161.155 28.0937 151.617 31.9069 140.831C34.475 133.678 41.7123 128.455 48.7161 123.346C52.3737 120.735 56.1869 118.01 59.2219 115.058C59.9222 114.32 61.1674 113.354 62.4903 112.276C67.0039 108.586 73.0739 103.59 72.0622 100.581C71.6731 99.5026 70.7393 98.424 69.8054 97.2886C68.7938 96.1532 67.7821 94.9042 67.393 93.7688C66.9261 92.2928 67.6265 92.009 68.3268 91.7819C68.7159 91.6684 69.0272 91.498 69.105 91.2142C69.2607 90.8168 68.8716 90.1356 66.6926 88.2622C65.4475 87.1835 61.9456 85.8211 58.5993 84.5154C55.0974 83.1529 51.0507 81.5633 50.7394 80.655C49.9612 78.6113 50.1947 77.8165 50.5838 77.4759C50.7394 77.3056 51.0507 77.2488 51.362 77.2488C54.7861 77.2488 64.6693 84.2883 72.7626 90.9303C72.8404 90.9871 72.9182 91.0439 72.9182 91.0439C74.4746 91.8954 75.7976 92.0657 76.9649 92.2928C78.5991 92.5767 80.0777 92.8038 81.7898 94.6204C82.6458 95.4719 82.4902 96.5506 82.3345 97.6292C82.1789 98.7646 82.0232 99.9 82.8792 100.865Z" fill="white"/>
</g>
<g style="mix-blend-mode:overlay">
<path d="M0.312195 57.5498C26.5377 68.3928 54.8643 85.5941 60.0004 94.1663C63.1132 99.3324 55.5647 105.464 46.0706 113.241C35.2535 122.097 21.8684 133.11 21.0124 146.281C20.0007 162.404 9.02808 168.989 0.234375 170.976V171.373C9.18372 169.386 20.4677 162.688 21.4793 146.281C22.3354 133.224 35.6426 122.267 46.3819 113.468C56.0316 105.577 63.5802 99.3324 60.3895 93.996C55.1755 85.367 26.6155 67.9954 0.234375 57.0956V57.5498H0.312195Z" fill="white"/>
</g>
<g style="mix-blend-mode:overlay">
<path d="M132.528 -19.9976L132.216 -20.0543C131.749 -19.6569 131.205 -19.2595 130.893 -18.6918C129.959 -17.0455 130.193 -15.2857 130.504 -13.6393C130.66 -12.731 130.815 -11.7659 130.738 -10.8008C130.66 -9.32483 130.193 -7.79204 129.804 -6.31603C129.493 -5.06709 129.103 -3.81815 128.948 -2.56922C127.936 4.9244 128.87 11.7368 131.594 17.5841C132.138 18.7762 134.395 20.7064 136.808 22.6934C139.843 25.248 143.033 27.8594 143.111 29.449C143.111 29.7896 143.033 30.0734 142.722 30.3005C141.866 30.925 139.687 31.0385 136.185 30.6411C133.617 30.3573 131.127 29.5625 128.714 28.8245C127.314 28.3703 125.913 27.9162 124.434 27.5756C124.045 27.462 123.578 27.3485 123.189 27.2917C118.053 26.0428 110.893 24.3397 109.882 21.3309C109.415 19.9116 110.349 18.2653 112.683 16.5054C116.419 13.667 120.232 10.7717 122.878 6.34364C125.368 2.08591 128.247 -6.14572 127.158 -10.6305C126.924 -11.5388 126.38 -12.1633 125.913 -12.7878C125.212 -13.5826 124.59 -14.3206 124.901 -15.683C125.135 -16.7049 125.679 -17.2726 126.146 -17.7835C126.691 -18.408 127.236 -18.9757 127.08 -20.0543H126.847C127.002 -19.0325 126.535 -18.5215 125.991 -17.8971C125.524 -17.3861 124.979 -16.7617 124.746 -15.683C124.434 -14.2638 125.135 -13.469 125.835 -12.6175C126.302 -12.0498 126.847 -11.4253 127.08 -10.5738C128.17 -6.14572 125.29 2.08591 122.8 6.28687C120.232 10.6581 116.419 13.5534 112.683 16.3919C110.271 18.2085 109.259 19.9116 109.804 21.3876C110.816 24.4532 117.975 26.2131 123.267 27.462C123.734 27.5756 124.123 27.6891 124.512 27.7459C125.913 28.0865 127.391 28.5406 128.792 28.9948C131.205 29.7328 133.695 30.5276 136.263 30.8682C137.664 31.0385 138.831 31.0953 139.843 31.0953C141.477 31.0953 142.489 30.8682 143.033 30.4708C143.345 30.2437 143.5 29.9031 143.5 29.5057C143.345 27.8594 140.154 25.1912 137.119 22.6366C134.784 20.6496 132.528 18.7762 131.983 17.5841C129.181 11.7368 128.325 4.98117 129.337 -2.51245C129.493 -3.76138 129.804 -5.01032 130.193 -6.20249C130.582 -7.6785 130.971 -9.21129 131.127 -10.7441C131.205 -11.7092 131.049 -12.6742 130.893 -13.5826C130.582 -15.2857 130.349 -16.932 131.282 -18.5215C131.516 -19.146 131.983 -19.6002 132.528 -19.9976Z" fill="white"/>
</g>
<g style="mix-blend-mode:overlay">
<path d="M107.003 -16.8185C111.905 -5.63486 117.041 5.94618 97.8198 14.0643C94.9404 15.2564 91.7498 16.1647 88.2479 16.7324C85.4463 17.1866 82.4113 17.4137 79.2207 17.4137C53.2287 17.4137 20.6998 3.33477 0.388672 -5.69163V-5.23748C20.6998 3.78892 53.1509 17.8111 79.2207 17.8111C82.4892 17.8111 85.5241 17.584 88.4035 17.1298C91.9054 16.5621 95.2517 15.6538 98.131 14.4616C117.742 6.17326 112.606 -5.52132 107.625 -16.8753C107.158 -17.8971 106.691 -18.919 106.302 -19.9409H105.757C106.069 -18.9758 106.536 -17.8971 107.003 -16.8185Z" fill="white"/>
</g>
<g style="mix-blend-mode:overlay">
<path d="M7.62597 98.1969C7.23686 96.3802 5.52482 94.7339 2.33418 93.2011C1.71162 92.8605 1.01123 92.5766 0.388672 92.236V92.4631C1.01123 92.7469 1.6338 93.0876 2.25636 93.3714C5.36918 94.9042 7.08122 96.4938 7.47033 98.2536C8.09289 101.206 5.05789 104.214 1.2447 107.621C1.01123 107.848 0.699953 108.132 0.388672 108.415V108.699C0.777774 108.302 1.08906 107.961 1.40034 107.677C5.13571 104.271 8.24853 101.206 7.62597 98.1969Z" fill="white"/>
</g>
<g style="mix-blend-mode:overlay">
<path d="M14.4739 100.127C16.4972 95.9826 14.4739 94.3363 5.29105 89.9083C4.59067 89.5676 3.81246 89.227 3.11208 88.8296C2.17824 88.3755 1.24439 87.9213 0.310547 87.4672V87.6942C1.16657 88.1484 2.02259 88.5458 2.95644 88.9999C3.73464 89.3406 4.43503 89.738 5.13541 90.0786C14.1626 94.4498 16.1859 96.0962 14.2404 100.127C12.4505 103.76 9.02643 106.882 5.36887 110.175C3.65682 111.708 1.94477 113.241 0.310547 114.944V115.228C2.02259 113.468 3.81246 111.878 5.52451 110.289C9.25989 106.882 12.684 103.76 14.4739 100.127Z" fill="white"/>
</g>
<g style="mix-blend-mode:overlay">
<path d="M75.8746 121.529C74.7073 121.529 73.6178 122.551 72.7618 123.289C72.6061 123.459 72.4505 123.573 72.2949 123.686C71.5166 124.311 70.8163 124.992 70.0381 125.673C69.5711 126.071 69.1042 126.525 68.6373 126.922L68.5595 126.979C67.0031 128.342 66.3805 129.193 66.614 129.647C66.6918 129.761 66.8474 129.931 67.2365 129.988C67.3143 129.988 67.3922 129.988 67.3922 129.988C70.505 129.931 72.9952 127.887 74.2404 126.638C75.4077 125.446 76.2637 124.197 76.4972 123.175C76.575 122.948 76.7306 122.097 76.3415 121.699C76.3415 121.586 76.108 121.529 75.8746 121.529ZM76.3415 123.119C76.0302 124.084 75.252 125.333 74.0847 126.468C72.9174 127.66 70.505 129.647 67.5478 129.704V129.874V129.704C67.47 129.704 67.47 129.704 67.3922 129.704C67.0809 129.704 67.0809 129.59 67.0809 129.59C67.0031 129.42 67.0031 128.909 68.9486 127.206L69.0264 127.149C69.4933 126.752 69.9602 126.298 70.4272 125.9C71.1275 125.276 71.9058 124.595 72.684 123.914C72.8396 123.8 72.9952 123.63 73.1509 123.459C73.8513 122.778 74.9407 121.813 75.9524 121.813C76.108 121.813 76.2637 121.87 76.3415 121.927C76.4971 122.154 76.4193 122.721 76.3415 123.119Z" fill="white"/>
</g>
<g style="mix-blend-mode:overlay">
<path d="M157.975 179.037C168.325 178.186 179.375 169.443 179.531 162.063C179.764 150.709 170.815 141.683 162.177 132.94C160.698 131.464 159.22 129.931 157.741 128.398L156.885 127.49C152.839 123.232 148.247 118.35 146.691 113.127C145.446 108.699 143.5 98.3672 145.601 94.7907C147.158 92.1793 151.516 90.7033 155.796 89.2273C158.753 88.2054 161.554 87.2971 163.5 85.9914L163.578 85.9346C170.27 81.5066 170.27 81.5066 174.784 81.393C176.185 81.3363 177.897 81.3363 180.309 81.166C183.578 80.9389 185.445 80.5983 186.846 80.3712C187.702 80.2009 188.402 80.0873 188.947 80.0873C190.348 80.0873 191.515 80.8253 195.406 83.2097C206.924 90.3059 206.69 102.625 206.457 114.547C206.223 129.534 205.912 145.089 229.18 149.971C232.527 150.652 235.795 151.05 238.908 151.05C247.624 151.05 255.095 148.211 260.464 142.818C268.324 134.927 270.425 122.551 265.678 112.049C254.705 87.8648 228.558 74.0697 200.387 60.8991C174.784 48.9207 150.426 45.628 129.648 43.4708C128.169 43.3005 126.691 43.2437 125.368 43.2437C116.886 43.2437 112.917 46.3661 107.858 50.3399C105.913 51.8727 103.89 53.4055 101.399 55.0518C98.5199 56.8685 94.8624 58.1174 91.3605 59.3663C85.6018 61.3533 80.2321 63.2267 77.9754 67.3709C73.2283 76.1702 84.9014 83.0961 95.1737 89.1705C99.9207 91.9522 104.434 94.6204 107.08 97.2886C117.586 107.791 114.395 125.56 104.901 135.495C101.944 138.617 96.2631 142.477 90.271 146.508C80.31 153.264 69.026 160.871 67.0027 167.343C66.0688 170.351 66.3023 172.452 67.7809 173.814C68.9482 174.893 71.0493 175.461 74.0065 175.461C78.9092 175.461 85.913 173.985 93.306 172.452C102.411 170.522 112.683 168.364 121.399 168.364C125.601 168.364 129.026 168.819 131.983 169.84C135.329 170.976 138.208 172.565 141.01 174.155C145.601 176.766 149.881 179.207 155.951 179.207C156.652 179.094 157.352 179.094 157.975 179.037ZM132.216 169.5C129.259 168.535 125.679 168.024 121.477 168.024C112.683 168.024 102.333 170.181 93.2282 172.111C85.8352 173.644 78.8314 175.12 74.0065 175.12C71.1272 175.12 69.2595 174.609 68.0922 173.587C66.6914 172.338 66.5358 170.295 67.3918 167.399C69.3373 161.041 80.6213 153.434 90.5044 146.735C96.4966 142.648 102.255 138.787 105.212 135.665C114.784 125.617 117.897 107.734 107.391 97.1183C104.746 94.4501 100.232 91.7819 95.4071 88.9434C85.2127 82.9258 73.6174 76.1134 78.2866 67.4844C80.4656 63.4538 85.8352 61.5804 91.5161 59.6502C95.0958 58.4013 98.7534 57.1523 101.633 55.2789C104.123 53.6894 106.146 52.0998 108.092 50.567C113.072 46.6499 117.041 43.5843 125.368 43.5843C126.691 43.5843 128.092 43.6411 129.57 43.8114C150.348 45.9687 174.706 49.2613 200.153 61.183C228.246 74.2968 254.316 88.0919 265.211 112.219C269.88 122.608 267.857 134.87 260.075 142.704C254.783 148.041 247.468 150.823 238.83 150.823C235.795 150.823 232.527 150.482 229.258 149.744C218.908 147.587 212.449 143.102 209.336 136.062C206.535 129.761 206.69 122.04 206.846 114.547C207.079 102.568 207.235 90.1356 195.64 82.9826C190.114 79.5764 189.959 79.5196 186.768 80.0873C185.367 80.3144 183.5 80.655 180.231 80.8821C177.819 81.0524 176.107 81.1092 174.784 81.1092C170.115 81.2227 170.115 81.2227 163.266 85.7075L163.189 85.7643C161.243 87.0132 158.519 87.9783 155.64 88.9434C151.282 90.4194 146.846 91.9522 145.212 94.6204C143.033 98.2537 144.979 108.643 146.302 113.127C147.78 118.407 152.449 123.289 156.496 127.547L157.352 128.455C158.753 129.988 160.309 131.521 161.788 132.997C170.426 141.739 179.297 150.709 179.064 161.949C178.908 169.216 168.014 177.788 157.897 178.64C157.274 178.696 156.574 178.696 155.951 178.696C149.959 178.696 145.757 176.255 141.243 173.701C138.52 172.281 135.64 170.635 132.216 169.5Z" fill="white"/>
</g>
<g style="mix-blend-mode:overlay">
<path d="M339.919 91.6121C339.53 91.385 338.908 90.9876 338.129 90.5335C335.172 88.6601 330.192 85.481 326.69 85.481C325.289 85.481 324.277 85.9919 323.655 86.9002C322.877 88.0924 324.666 90.8741 325.834 92.6907C326.145 93.1449 326.378 93.5423 326.534 93.8261C326.845 94.3938 327.157 94.9047 327.39 95.4157C329.024 98.5948 330.736 101.831 331.982 105.35C332.137 105.748 332.215 106.145 332.371 106.599C332.915 108.473 333.694 110.857 335.483 111.992C336.184 112.447 336.884 112.73 337.507 112.901C337.818 112.958 338.129 113.014 338.363 113.014C340.464 113.014 341.943 111.254 343.343 109.551C343.655 109.154 343.966 108.757 344.355 108.416L344.666 108.075C350.036 102.115 353.304 98.538 343.421 93.5423C342.487 92.9746 341.242 92.2933 339.919 91.6121ZM344.355 107.848L344.044 108.189C343.732 108.586 343.343 108.984 343.032 109.324C341.709 110.971 340.308 112.617 338.363 112.617C338.129 112.617 337.896 112.56 337.585 112.56C336.962 112.447 336.339 112.163 335.717 111.709C334.005 110.63 333.304 108.302 332.76 106.486C332.604 106.032 332.526 105.634 332.371 105.237C331.126 101.66 329.413 98.4245 327.701 95.2454C327.468 94.7912 327.157 94.2235 326.845 93.6558C326.69 93.372 326.456 92.9746 326.145 92.5204C325.056 90.8741 323.266 88.0356 323.966 86.957C324.589 86.1054 325.445 85.6513 326.69 85.6513C330.036 85.6513 334.939 88.7736 337.818 90.5902C338.596 91.1012 339.219 91.4986 339.608 91.6689C340.931 92.3501 342.176 93.0313 343.11 93.4855C352.76 98.4812 349.569 102.001 344.355 107.848Z" fill="white"/>
</g>
<g style="mix-blend-mode:overlay">
<path d="M346.301 85.1965C344.589 84.2882 342.877 83.2663 341.087 82.1877C335.562 78.8951 329.258 75.1483 323.578 75.1483C322.488 75.1483 321.399 75.3186 320.309 75.6024C310.348 78.3274 311.749 86.0481 313.539 90.4193C314.628 93.0875 315.951 95.6989 317.274 98.2536C318.831 101.206 320.465 104.271 321.554 107.394C322.255 109.267 322.566 111.254 322.877 113.184C323.889 119.031 324.823 124.595 335.562 124.595C336.418 124.595 337.352 124.538 338.286 124.481C339.531 124.368 340.542 124.254 341.398 124.027C344.278 123.346 345.134 122.097 346.379 120.167C346.768 119.599 347.235 118.918 347.78 118.237C348.636 117.158 349.57 116.136 350.503 115.114V114.83C349.492 115.909 348.48 116.988 347.546 118.123C347.001 118.861 346.535 119.485 346.145 120.053C344.9 121.927 344.044 123.176 341.243 123.8C340.387 123.97 339.453 124.141 338.208 124.197C337.274 124.254 336.34 124.311 335.484 124.311C324.978 124.311 324.044 119.088 323.033 113.014C322.722 111.084 322.332 109.097 321.71 107.223C320.62 104.101 318.986 101.035 317.43 98.0833C316.107 95.5286 314.706 92.9172 313.694 90.3058C311.982 85.9913 310.582 78.4409 320.387 75.716C321.399 75.4321 322.488 75.3186 323.578 75.3186C329.181 75.3186 335.406 79.0654 340.931 82.3013C342.721 83.3799 344.433 84.4017 346.223 85.3101C347.546 85.9913 348.636 86.6158 349.492 87.0699C349.803 87.2402 350.192 87.4105 350.581 87.5808V87.3538C350.27 87.1835 349.959 87.0699 349.647 86.8996C348.791 86.5022 347.624 85.9345 346.301 85.1965Z" fill="white"/>
</g>
<g style="mix-blend-mode:overlay">
<path d="M322.566 2.65369C321.554 2.65369 320.543 2.65369 319.609 2.65369C318.675 2.65369 317.741 2.65369 316.807 2.65369C311.515 2.65369 307.313 2.88077 302.644 3.90262C300.232 4.47032 297.897 5.2651 295.718 6.11664C292.06 7.47912 288.558 8.78483 284.356 8.78483C283.656 8.78483 282.955 8.72806 282.255 8.67129C279.22 8.33067 276.885 7.02496 274.629 5.77603C272.138 4.35678 269.804 2.9943 266.457 2.9943C266.146 2.9943 265.835 2.99431 265.524 3.05108C263.5 3.22139 260.232 4.52709 257.041 5.8328C255.018 6.68434 253.072 7.47912 251.749 7.81974C249.804 8.33067 248.248 8.61452 247.158 8.78483C243.89 9.35253 243.5 9.5796 241.866 13.9509C241.399 15.143 241.088 16.2784 240.777 17.4138C239.609 21.5013 238.753 24.6804 232.761 27.8027C228.715 29.8464 223.656 30.8683 217.197 30.8683C210.816 30.8683 204.123 29.9032 198.209 29.0517C195.096 28.5975 192.217 28.2001 190.038 28.0298C188.793 27.9163 186.847 27.8595 184.824 27.8595C179.143 27.8595 172.45 29.3923 171.984 31.5495C171.75 32.5714 172.84 34.1609 179.454 35.6937L180.155 35.864C205.135 41.7113 222.489 49.3185 240.232 62.1485C245.135 65.6682 248.87 67.3145 251.983 67.3145C252.683 67.3145 253.461 67.201 254.084 67.0307C257.43 66.1224 259.843 63.0568 262.644 59.537C264.123 57.7204 265.757 55.6199 267.703 53.633C277.119 43.9821 290.582 36.8859 305.679 33.7635C310.115 32.8552 314.473 32.3443 318.597 32.3443C332.06 32.3443 341.554 37.1697 350.503 42.1087V41.7681C341.554 36.8291 332.06 32.1172 318.597 32.1172C314.473 32.1172 310.037 32.5714 305.601 33.5365C290.426 36.7156 276.885 43.8118 267.391 53.5195C265.446 55.5064 263.812 57.6069 262.333 59.4235C259.531 62.9432 257.197 65.952 254.006 66.8036C253.384 66.9739 252.683 67.0874 251.983 67.0874C248.948 67.0874 245.29 65.4411 240.543 61.9782C222.8 49.0914 205.369 41.4842 180.31 35.5802L179.61 35.4099C174.707 34.2745 172.139 32.912 172.45 31.6063C172.84 29.7897 178.754 28.1433 184.902 28.1433C186.847 28.1433 188.793 28.2001 190.038 28.3136C192.217 28.484 195.096 28.8813 198.209 29.3355C204.123 30.187 210.894 31.2089 217.275 31.2089C223.812 31.2089 229.026 30.187 233.073 28.0866C239.143 24.9642 240.076 21.6716 241.244 17.5274C241.555 16.4488 241.866 15.3134 242.333 14.1212C243.89 9.74992 244.201 9.69314 247.314 9.12545C248.403 8.95514 249.882 8.67129 251.905 8.16036C253.306 7.76297 255.251 6.96819 257.275 6.17342C260.232 4.92448 263.656 3.562 265.601 3.39169C265.913 3.39169 266.224 3.33492 266.457 3.33492C269.648 3.33492 271.983 4.64063 274.395 6.05988C276.652 7.36558 278.987 8.72806 282.177 9.06868C282.878 9.12545 283.578 9.18222 284.278 9.18222C288.558 9.18222 292.216 7.81974 295.796 6.51403C297.975 5.71926 300.232 4.86771 302.644 4.30001C307.235 3.27815 311.438 3.05108 316.729 3.05108C317.663 3.05108 318.597 3.05108 319.531 3.05108C320.543 3.05108 321.476 3.05108 322.566 3.05108C327.313 3.05108 331.593 3.44846 335.562 4.30001C340.62 5.37864 345.601 6.79788 350.503 8.55775V8.21713C345.601 6.51403 340.62 5.09479 335.64 4.01616C331.593 3.05107 327.313 2.65369 322.566 2.65369Z" fill="white"/>
</g>
<g style="mix-blend-mode:overlay">
<path d="M346.533 90.1921C345.599 89.7379 344.432 89.1135 343.109 88.4322C341.241 87.4671 339.529 86.3885 337.662 85.3099C337.273 85.0828 336.806 84.799 336.261 84.4583C333.148 82.5282 328.868 79.86 324.899 79.86C323.81 79.86 322.798 80.0871 321.864 80.4845C315.016 83.55 319.141 90.9301 321.631 95.3014C321.942 95.8123 322.175 96.3232 322.409 96.7774C324.043 99.843 325.677 103.022 326.845 106.315C327.078 106.939 327.312 107.677 327.545 108.472C328.635 112.048 330.113 116.931 333.849 118.691C334.471 118.974 335.094 119.145 335.794 119.201C336.028 119.201 336.183 119.258 336.417 119.258C341.008 119.258 345.522 114.206 348.868 110.459C349.49 109.778 350.035 109.153 350.502 108.642V108.358C349.957 108.926 349.335 109.607 348.634 110.345C345.366 114.035 340.775 119.031 336.339 119.031C336.183 119.031 335.95 119.031 335.794 118.974C335.172 118.918 334.549 118.747 333.926 118.463C330.269 116.76 328.79 111.878 327.701 108.358C327.467 107.564 327.234 106.826 327 106.201C325.833 102.852 324.121 99.6727 322.565 96.6071C322.331 96.1529 322.02 95.642 321.786 95.1311C319.374 90.7598 315.327 83.4933 321.942 80.4845C322.798 80.0871 323.81 79.9168 324.821 79.9168C328.712 79.9168 332.915 82.5282 336.028 84.4583C336.494 84.7422 336.961 85.026 337.428 85.3099C339.296 86.4453 341.086 87.4671 342.876 88.4322C344.121 89.1135 345.366 89.7379 346.3 90.1921C347.545 90.8166 348.712 91.3843 350.035 92.0655C350.191 92.1223 350.269 92.179 350.424 92.2358C350.346 92.179 350.269 92.1223 350.113 92.1223C348.946 91.441 347.701 90.8166 346.533 90.1921Z" fill="white"/>
</g>
<g style="mix-blend-mode:overlay">
<path d="M306.068 130.499C306.535 130.896 307.314 131.52 309.415 131.634C317.197 132.088 328.948 132.826 338.909 139.411L338.987 139.468C342.411 141.739 345.134 144.577 347.158 147.984C347.702 148.892 348.636 149.46 349.648 149.46C349.959 149.46 350.193 149.403 350.504 149.346V149.119C350.193 149.233 349.959 149.289 349.648 149.289C348.714 149.289 347.858 148.778 347.313 147.927C345.29 144.521 342.488 141.625 339.064 139.355L338.987 139.298C329.026 132.656 317.197 131.975 309.415 131.52C307.391 131.407 306.613 130.839 306.224 130.442C305.212 129.477 305.135 128.057 305.212 127.603C306.302 124.14 307.625 119.826 307.158 115.057C306.302 107.053 301.944 100.183 297.664 93.4846C294.24 88.1483 290.427 82.0739 291.75 79.3489C294.162 74.41 303.89 67.3705 308.014 64.5888C310.582 62.8289 313.695 61.9206 317.197 61.9206C319.22 61.9206 320.932 62.2045 322.022 62.4883C329.181 64.1914 339.298 68.0518 350.582 73.3313V73.1043C339.298 67.8247 329.181 63.9643 322.099 62.318C321.01 62.0342 319.22 61.7503 317.197 61.7503C313.617 61.7503 310.504 62.6586 307.858 64.4753C303.734 67.257 294.006 74.3532 291.594 79.2922C290.193 82.1307 294.084 88.205 297.508 93.5982C301.711 100.24 306.146 107.109 307.002 115.114C307.469 119.826 306.146 124.14 305.057 127.603C304.901 128.001 304.979 129.533 306.068 130.499Z" fill="white"/>
</g>
<g style="mix-blend-mode:overlay">
<path d="M320.698 125.333C322.488 126.014 324.9 126.354 327.235 126.638C328.947 126.865 330.737 127.092 332.215 127.49C333.149 127.717 334.161 128.114 335.25 128.512C337.507 129.306 339.998 130.215 342.332 130.215C342.799 130.215 343.188 130.158 343.577 130.101C343.655 130.101 343.811 130.044 343.889 130.044C347.157 129.306 348.947 126.298 350.503 123.516V123.062V123.119C348.947 125.957 347.235 129.136 343.889 129.874C343.811 129.874 343.655 129.931 343.577 129.931C343.188 129.988 342.799 130.044 342.332 130.044C340.075 130.044 337.585 129.136 335.406 128.341C334.317 127.944 333.305 127.603 332.371 127.319C330.893 126.922 329.103 126.695 327.313 126.468C324.978 126.184 322.566 125.9 320.854 125.162C317.041 123.629 317.43 120.791 317.819 117.839C317.974 116.647 318.13 115.455 318.052 114.376C317.041 104.952 312.216 97.4018 307.546 90.0785C305.445 86.7858 305.29 83.1526 307.08 79.8599C309.025 76.3402 313.227 73.4449 318.441 71.9689C320.076 71.5148 321.788 71.2877 323.5 71.2877C330.97 71.2877 338.052 75.4886 344.278 79.1787C346.068 80.2005 347.702 81.2224 349.336 82.0739C349.725 82.301 350.114 82.4713 350.503 82.6984V82.4713C350.192 82.301 349.881 82.1307 349.492 81.9604C347.935 81.1089 346.223 80.1438 344.511 79.0651C338.285 75.3183 331.204 71.1174 323.577 71.1174C321.788 71.1174 320.076 71.3444 318.441 71.7986C313.15 73.2746 308.947 76.1699 306.924 79.7464C305.056 83.0958 305.212 86.7291 307.391 90.0785C312.06 97.345 316.807 104.895 317.819 114.319C317.897 115.398 317.741 116.59 317.585 117.782C317.118 120.791 316.729 123.743 320.698 125.333Z" fill="white"/>
</g>
<g style="mix-blend-mode:overlay">
<path d="M322.566 8.38672C316.029 8.38672 309.025 9.23827 301.71 10.1466C293.383 11.1684 284.823 12.2471 275.64 12.2471C275.018 12.2471 274.317 12.2471 273.695 12.2471C270.504 12.1903 267.858 11.7929 265.446 11.4523C263.422 11.1684 261.633 10.8846 259.92 10.8846C255.874 10.8846 252.917 12.4174 249.648 16.221C248.092 18.0376 246.924 20.2516 245.835 22.3521C243.889 26.0989 241.866 29.9592 237.43 32.2868C235.874 33.0816 232.917 33.7061 229.804 34.3305C224.357 35.4659 218.209 36.7716 217.353 39.4398C216.341 42.7892 225.757 47.3876 230.816 49.8855C231.75 50.3396 232.606 50.737 233.15 51.0209C239.142 54.2 244.045 56.3572 248.714 56.3572C249.337 56.3572 249.959 56.3004 250.582 56.2437C254.317 55.7327 257.742 53.8026 261.243 50.1693C271.671 39.4398 286.691 31.6056 303.5 28.0858C308.636 27.0072 313.772 26.4395 318.597 26.4395C332.06 26.4395 341.943 30.4134 350.503 34.7847V34.5576C341.943 30.1863 332.06 26.2124 318.597 26.2124C313.694 26.2124 308.636 26.7801 303.422 27.8588C286.535 31.3785 271.516 39.2695 261.088 49.999C257.586 53.6323 254.24 55.5057 250.582 56.0166C249.959 56.0734 249.337 56.1301 248.714 56.1301C244.123 56.1301 239.22 54.0296 233.306 50.8505C232.761 50.5667 231.983 50.1693 230.971 49.7151C225.913 47.274 216.575 42.7325 217.586 39.4966C218.364 36.9419 224.512 35.6362 229.882 34.5008C232.995 33.8764 235.952 33.2519 237.508 32.4003C242.022 30.0728 244.045 26.1557 245.991 22.4089C247.08 20.3084 248.247 18.0944 249.804 16.2777C252.994 12.5309 255.952 10.9981 259.843 10.9981C261.555 10.9981 263.267 11.2252 265.29 11.5658C267.703 11.9064 270.348 12.3038 273.539 12.3606C274.162 12.3606 274.862 12.3606 275.485 12.3606C284.667 12.3606 293.228 11.282 301.554 10.2601C308.947 9.35181 315.873 8.50026 322.41 8.50026C326.457 8.50026 330.037 8.84088 333.305 9.52211C338.986 10.7143 344.589 12.4741 350.426 14.6314V14.4611C344.667 12.3606 339.064 10.6007 333.383 9.40857C330.192 8.72734 326.613 8.38672 322.566 8.38672Z" fill="white"/>
</g>
<g style="mix-blend-mode:overlay">
<path d="M315.64 128.398C317.196 128.682 318.752 128.966 320.309 129.193C328.48 130.556 335.484 131.748 342.488 136.403L342.643 136.516C344.277 137.595 345.523 138.106 346.534 138.106C346.69 138.106 346.846 138.106 347.001 138.049C348.558 137.765 349.258 136.233 350.114 134.246C350.27 133.962 350.347 133.621 350.503 133.337V132.77C350.27 133.224 350.036 133.735 349.881 134.189C349.102 136.119 348.324 137.652 346.923 137.879C345.912 138.049 344.589 137.538 342.799 136.346L342.643 136.233C335.562 131.577 328.48 130.385 320.387 128.966C318.908 128.739 317.352 128.455 315.717 128.171C310.037 127.149 310.97 123.232 311.904 119.429C312.293 117.782 312.76 116.079 312.605 114.66C311.671 105.917 307.079 98.7077 302.644 91.725C302.099 90.8735 301.554 90.0787 301.009 89.2839C298.13 85.1965 295.718 81.6768 299.219 77.3055C301.865 74.0128 305.834 71.3446 309.725 68.79C310.426 68.3358 311.126 67.8817 311.826 67.3708C313.305 66.3489 315.328 65.838 317.819 65.838C327.39 65.838 342.176 73.2748 350.659 77.7596V77.5326C342.098 73.0477 327.468 65.6677 317.819 65.6677C315.25 65.6677 313.149 66.1786 311.671 67.2572C310.97 67.7114 310.27 68.1655 309.647 68.6765C305.756 71.2879 301.788 73.9561 299.142 77.2487C295.562 81.6768 298.13 85.4236 300.932 89.3974C301.476 90.1922 302.021 90.987 302.566 91.8386C307.002 98.8212 311.593 105.974 312.527 114.717C312.682 116.136 312.293 117.839 311.826 119.485C310.737 123.346 309.725 127.32 315.64 128.398Z" fill="white"/>
</g>
<g style="mix-blend-mode:overlay">
<path d="M151.906 210.146C149.96 212.304 147.47 215.029 148.326 216.845C148.637 217.583 149.571 218.151 150.894 218.548C151.127 218.605 151.439 218.662 151.75 218.662C154.785 218.662 159.532 215.256 163.734 212.304C166.38 210.43 168.948 208.614 170.427 208.103C177.664 205.718 187.703 204.583 196.497 203.561C199.999 203.164 203.267 202.766 206.302 202.369C213.228 201.404 219.921 200.893 226.146 200.893C246.613 200.893 263.889 206.286 277.274 216.902C278.753 218.094 281.01 218.719 283.811 218.719C292.605 218.719 307.624 212.474 318.285 200.95C324.667 194.024 333.85 179.888 324.278 162.914C320.464 156.102 314.706 152.922 306.301 152.922C299.92 152.922 292.605 154.626 284.122 156.612C273.694 159.054 261.943 161.835 249.259 161.835C239.376 161.835 230.348 160.189 221.555 156.783C194.473 146.224 193.695 127.035 196.03 111.48C196.964 105.406 195.485 100.637 191.75 97.6286C189.104 95.5282 185.602 94.3928 181.477 94.3928C173.695 94.3928 163.89 98.8208 160.388 107.28C157.042 115.227 164.902 122.494 174.007 130.839C184.279 140.263 195.874 150.992 193.617 165.298C192.528 172.394 188.948 179.207 184.123 183.465C180.466 186.7 177.197 187.041 173.851 187.325C171.205 187.552 168.559 187.779 165.368 189.255C162.956 190.391 162.178 192.264 161.4 194.308C160.855 195.67 160.31 197.146 159.143 198.338C158.52 198.963 157.431 199.133 156.186 199.247C154.629 199.417 152.917 199.644 151.983 201.12C151.361 202.142 152.217 203.334 152.995 204.469C153.695 205.435 154.396 206.456 154.162 207.251C154.007 207.876 152.995 208.954 151.906 210.146ZM153.384 204.242C152.606 203.107 151.828 202.028 152.372 201.177C153.228 199.871 154.785 199.701 156.263 199.474C157.509 199.303 158.754 199.19 159.454 198.395C160.699 197.146 161.244 195.727 161.789 194.308C162.567 192.377 163.267 190.504 165.602 189.425C168.715 188.006 171.361 187.779 173.929 187.552C177.431 187.211 180.777 186.928 184.512 183.578C189.415 179.207 192.995 172.394 194.084 165.241C196.341 150.822 184.668 140.036 174.396 130.555C165.368 122.267 157.586 115.057 160.855 107.28C164.279 98.9911 173.851 94.6198 181.477 94.6198C185.446 94.6198 188.948 95.6985 191.438 97.7422C195.018 100.694 196.497 105.406 195.563 111.367C193.228 127.035 194.006 146.394 221.321 157.01C230.193 160.473 239.298 162.119 249.259 162.119C262.021 162.119 273.85 159.337 284.278 156.896C292.683 154.909 299.998 153.206 306.301 153.206C314.628 153.206 319.997 156.215 323.811 162.971C333.305 179.775 324.2 193.797 317.896 200.666C307.78 211.736 292.605 218.321 283.811 218.321C281.087 218.321 279.064 217.754 277.585 216.618C264.045 205.945 246.769 200.496 226.068 200.496C219.765 200.496 213.072 201.006 206.068 201.972C203.033 202.426 199.765 202.766 196.263 203.164C187.392 204.186 177.353 205.321 170.038 207.762C168.481 208.273 165.991 210.033 163.189 212.02C159.065 214.972 154.396 218.321 151.516 218.321C151.283 218.321 151.05 218.321 150.816 218.265C149.571 217.924 148.793 217.47 148.481 216.788C147.703 215.085 150.116 212.474 151.983 210.374C153.151 209.125 154.084 208.046 154.318 207.308C154.863 206.343 154.085 205.264 153.384 204.242Z" fill="white"/>
</g>
<g style="mix-blend-mode:overlay">
<path d="M339.998 171.43C341.01 171.884 342.644 172.168 344.59 172.168C346.302 172.168 348.403 171.941 350.582 171.486V171.089C348.403 171.6 346.302 171.827 344.59 171.827C342.8 171.827 341.243 171.6 340.31 171.146C335.718 168.989 333.695 165.242 331.594 161.268C329.726 157.805 327.858 154.285 324.123 151.787V151.674H323.967C319.687 148.949 313.929 147.586 306.38 147.586C298.987 147.586 291.283 148.892 285.057 149.914C280.777 150.595 277.119 151.22 274.785 151.22C273.384 151.22 272.528 150.993 272.217 150.595C271.75 150.027 272.139 148.949 273.228 147.416C278.598 140.263 289.493 123.175 288.715 116.136C288.092 110.572 284.435 104.782 280.933 99.2184C275.797 91.1571 270.505 82.812 274.318 74.8642C278.754 65.781 298.209 49.5449 312.061 48.1256C312.839 48.0688 313.773 48.0121 314.629 48.0121C323.656 48.0121 336.808 51.9292 350.582 57.6062V57.2088C336.808 51.5318 323.656 47.6714 314.629 47.6714C313.695 47.6714 312.761 47.7282 311.983 47.785C297.975 49.2042 278.287 65.6107 273.773 74.7506C269.804 82.8687 275.174 91.2707 280.388 99.4455C283.89 105.009 287.547 110.686 288.17 116.193C288.87 122.494 279.376 138.446 272.762 147.302C271.439 149.006 271.127 150.141 271.75 150.879C272.217 151.447 273.228 151.731 274.785 151.731C277.197 151.731 280.933 151.106 285.213 150.425C291.438 149.403 299.143 148.097 306.38 148.097C313.851 148.097 319.454 149.403 323.656 152.128C327.314 154.569 329.259 158.089 331.049 161.552C333.228 165.412 335.251 169.216 339.998 171.43Z" fill="white"/>
</g>
<g style="mix-blend-mode:overlay">
<path d="M162.955 204.186C163.422 204.299 164.356 204.356 165.446 204.356C167.78 204.356 176.574 204.072 190.27 200.78C201.71 197.998 215.095 196.522 228.013 196.522C249.18 196.522 263.266 198.85 281.398 211.509C282.721 212.418 284.433 212.872 286.534 212.872C294.394 212.872 306.301 206.627 313.693 198.622C319.452 192.378 327.779 179.661 319.141 164.39C315.406 157.862 310.814 156.953 306.301 156.953C300.775 156.953 293.849 158.6 285.834 160.473C275.017 163.028 262.799 165.866 249.258 165.866C238.441 165.866 228.558 164.05 218.908 160.303C188.558 148.495 188.169 126.468 190.504 110.97C191.204 106.144 190.193 102.341 187.624 100.24C186.068 98.9914 183.967 98.3102 181.477 98.3102C175.718 98.3102 168.481 101.773 165.679 108.302C163.189 114.263 170.193 120.677 178.364 128.171C188.714 137.708 201.632 149.63 199.142 165.582C198.441 170.124 196.729 174.495 194.161 178.469C190.037 184.827 184.667 190.221 178.053 194.535C173.695 197.374 169.337 199.36 166.146 200.78C163.267 202.085 161.477 202.88 161.632 203.505C161.71 203.845 162.099 204.072 162.955 204.186ZM166.302 201.007C169.492 199.588 173.85 197.601 178.208 194.762C184.823 190.448 190.27 185.054 194.395 178.639C196.963 174.609 198.675 170.238 199.375 165.696C201.866 149.687 188.947 137.765 178.519 128.171C170.426 120.734 163.5 114.319 165.913 108.472C168.636 102 175.796 98.594 181.477 98.594C183.967 98.594 185.99 99.2185 187.469 100.467C190.037 102.511 190.971 106.258 190.27 111.027C187.936 126.582 188.325 148.665 218.83 160.53C228.48 164.277 238.441 166.093 249.258 166.093C262.877 166.093 275.095 163.198 285.912 160.643C293.927 158.77 300.775 157.124 306.301 157.124C310.658 157.124 315.25 158.032 318.907 164.504C327.468 179.661 319.141 192.321 313.46 198.566C306.301 206.4 294.238 212.758 286.534 212.758C284.511 212.758 282.799 212.304 281.554 211.452C272.76 205.321 264.589 201.404 255.795 199.19C248.247 197.26 239.92 196.465 228.013 196.465C215.095 196.465 201.71 197.998 190.193 200.78C176.496 204.072 167.78 204.356 165.446 204.356C164.356 204.356 163.422 204.299 162.955 204.243C162.255 204.129 161.866 203.959 161.788 203.732C161.788 203.05 163.656 202.199 166.302 201.007Z" fill="white"/>
</g>
<g style="mix-blend-mode:overlay">
<path d="M181.478 102.285C177.276 102.285 172.684 105.35 171.206 108.132C170.194 109.949 170.972 113.071 173.229 116.534C175.33 119.77 178.21 122.211 180.311 122.665C180.622 122.722 180.933 122.779 181.245 122.779C181.634 122.779 181.945 122.722 182.256 122.665C184.98 121.984 184.902 120.792 184.746 118.123C184.669 116.477 184.513 114.263 184.98 111.198C185.602 107.053 184.746 103.931 183.501 102.966C183.268 102.569 182.723 102.285 181.478 102.285ZM184.746 111.084C184.28 114.206 184.357 116.42 184.513 118.067C184.669 120.735 184.669 121.7 182.256 122.324C181.711 122.495 181.089 122.495 180.466 122.324C178.443 121.87 175.719 119.486 173.618 116.307C171.361 112.957 170.661 109.892 171.595 108.132C173.073 105.464 177.509 102.455 181.478 102.455C182.567 102.455 183.034 102.682 183.346 102.966C184.513 103.988 185.369 107.053 184.746 111.084Z" fill="white"/>
</g>
<g style="mix-blend-mode:overlay">
<path d="M144.98 -19.9979H144.435C143.268 -16.9324 142.412 -13.5829 141.867 -9.8929C141.011 -3.47791 140.233 4.86725 142.023 12.9853C143.346 18.8894 145.992 21.5008 150.583 21.5008C153.54 21.5008 156.886 20.479 160.855 19.2868C163.579 18.4352 166.458 17.5837 169.416 16.9592C169.727 16.9025 169.96 16.8457 170.272 16.7889C178.91 15.0858 188.637 14.8587 198.909 16.1077C201.711 16.4483 204.513 17.016 207.158 17.5269C211.127 18.3217 215.174 19.1732 219.376 19.2868C221.633 19.3436 223.189 19.1732 224.357 18.7759C227.703 17.5837 226.069 14.5749 224.357 11.3958C223.345 9.52238 222.333 7.5922 222.1 5.83234C221.166 -3.42114 228.248 -11.8798 237.664 -19.9412H236.964C227.625 -11.8798 220.699 -3.42114 221.555 5.83234C221.711 7.64897 222.8 9.63592 223.812 11.5093C225.524 14.6317 226.925 17.3566 224.045 18.3785C223.034 18.7759 221.477 18.8894 219.298 18.8326C215.174 18.7191 211.127 17.8675 207.236 17.0728C204.512 16.5051 201.711 15.9374 198.909 15.6535C188.559 14.4046 178.754 14.6884 170.038 16.3915C169.727 16.4483 169.416 16.5051 169.182 16.5618C166.147 17.1863 163.268 18.0378 160.544 18.8894C156.653 20.0816 153.307 21.1034 150.505 21.1034C146.225 21.1034 143.813 18.6055 142.49 12.9286C140.7 4.86725 141.478 -3.47791 142.334 -9.83613C142.957 -13.5829 143.735 -16.9324 144.98 -19.9979Z" fill="white"/>
</g>
<g style="mix-blend-mode:overlay">
<path d="M128.482 92.1228C129.182 92.1228 129.649 91.4416 130.194 89.9088C132.139 84.1183 138.598 76.4543 148.637 72.3669C158.754 68.2227 165.524 67.1441 169.182 66.5764C170.972 66.2925 171.906 66.1222 172.139 65.7816C172.217 65.6681 172.217 65.4978 172.061 65.3275C171.361 64.4191 158.832 59.2531 140.7 58.2312L139.921 58.1745C138.287 58.0609 136.886 58.0042 135.564 58.0042C130.816 58.0042 127.081 58.9692 118.21 64.4191C116.809 65.2707 115.408 66.0655 114.007 66.8602C109.727 69.2446 105.992 71.3451 106.225 73.6726C106.381 75.4893 108.871 77.2491 113.929 79.2928C119.533 81.5636 122.957 86.0484 125.213 89.0005C126.614 90.8739 127.626 92.1228 128.482 92.1228ZM114.007 79.1225C109.105 77.1356 106.614 75.3189 106.381 73.6159C106.147 71.3451 109.805 69.3013 114.007 66.917C115.408 66.1222 116.809 65.3275 118.21 64.4759C127.003 59.026 130.816 58.0609 135.408 58.0609C136.731 58.0609 138.132 58.1177 139.766 58.2312L140.544 58.288C158.209 59.3099 171.05 64.4191 171.672 65.3275C171.828 65.4978 171.75 65.6113 171.75 65.6681C171.594 65.9519 170.583 66.0655 169.026 66.3493C165.369 66.917 158.598 67.9956 148.404 72.1398C138.287 76.2273 131.828 83.948 129.883 89.7952C129.416 91.2145 128.949 91.8957 128.404 91.8957C127.626 91.8957 126.614 90.5333 125.291 88.8869C123.112 85.9349 119.688 81.3933 114.007 79.1225Z" fill="white"/>
</g>
<g style="mix-blend-mode:overlay">
<path d="M129.96 101.831C130.66 101.831 131.127 101.263 131.439 99.9572C133.462 92.123 137.82 81.0529 152.45 75.1488C156.964 73.3322 162.1 71.8562 168.092 70.7208C169.259 70.4937 170.582 69.8692 171.827 69.2447C173.462 68.45 175.096 67.6552 176.652 67.6552C176.808 67.6552 177.041 67.6552 177.197 67.712C178.053 67.8255 178.676 68.1661 179.298 68.5635C179.999 68.9609 180.699 69.3583 181.555 69.3583C181.866 69.3583 182.255 69.3015 182.644 69.188C183.267 69.0177 183.656 68.6203 183.967 68.2797C184.434 67.7687 184.901 67.3146 186.224 67.3713C187.547 67.4281 188.247 68.1661 189.026 68.9609C189.57 69.5286 190.115 70.0395 190.893 70.3801C191.438 70.6072 192.45 70.8343 193.384 70.8343C194.006 70.8343 194.473 70.7208 194.707 70.4937C194.94 70.2666 195.018 69.926 194.862 69.5286C194.317 68.1661 190.426 66.9172 187.781 66.1224C187.002 65.8953 186.38 65.6682 185.913 65.4979C182.022 64.0219 178.209 62.7162 174.862 61.6944C161.088 57.2663 148.481 54.5981 136.419 53.4627C135.096 53.3492 133.851 53.2924 132.839 53.2924C126.925 53.2924 122.256 55.1658 113.151 61.4105C110.894 62.9433 108.559 64.249 106.38 65.4979C101.4 68.3364 97.4311 70.6072 97.5089 73.3889C97.5868 75.603 100.233 77.9873 105.836 80.8826C114.863 85.4809 120.855 92.5204 124.824 97.1755C127.158 99.9572 128.793 101.831 129.96 101.831ZM105.836 80.7122C100.31 77.8738 97.6646 75.5462 97.5868 73.3889C97.5089 70.664 101.4 68.45 106.38 65.6115C108.637 64.3625 110.972 63.0001 113.229 61.524C122.334 55.3361 126.925 53.4627 132.762 53.4627C133.851 53.4627 135.018 53.5195 136.341 53.633C148.403 54.7684 160.933 57.4366 174.707 61.8079C177.975 62.8297 181.866 64.1355 185.679 65.6115C186.146 65.7818 186.769 66.0089 187.547 66.2359C190.115 67.0307 194.006 68.2797 194.473 69.5286C194.629 69.8692 194.551 70.1531 194.395 70.3234C194.162 70.5504 193.617 70.6072 193.306 70.6072C192.528 70.6072 191.516 70.3801 190.971 70.1531C190.271 69.8692 189.726 69.3015 189.181 68.7906C188.403 67.9958 187.625 67.201 186.224 67.1443C184.746 67.0307 184.279 67.5984 183.812 68.1093C183.5 68.45 183.189 68.7906 182.567 68.9609C182.177 69.0744 181.866 69.1312 181.555 69.1312C180.699 69.1312 180.076 68.7906 179.454 68.3932C178.831 68.0526 178.131 67.6552 177.197 67.5416C177.041 67.5416 176.808 67.4849 176.652 67.4849C175.018 67.4849 173.306 68.3364 171.672 69.1312C170.349 69.7557 169.181 70.3801 168.014 70.6072C162.022 71.7426 156.886 73.2186 152.372 75.0353C137.664 80.9961 133.228 92.123 131.205 99.9572C130.894 101.093 130.505 101.66 129.96 101.66C128.948 101.66 127.236 99.7301 124.902 97.0052C120.933 92.3501 114.941 85.3106 105.836 80.7122Z" fill="white"/>
</g>
<g style="mix-blend-mode:overlay">
<path d="M158.675 173.077C163.967 172.622 169.025 169.954 171.437 166.264C173.694 162.915 174.862 157.181 167.936 149.12C164.978 145.657 161.71 142.137 158.597 138.731C149.648 129.023 141.165 119.883 137.741 110.686C133.772 100.298 136.963 91.7254 147.702 83.7208C157.041 76.7949 169.336 72.821 181.476 72.821C190.581 72.821 198.752 75.1486 204.433 79.4063C210.659 84.0614 213.772 90.9306 213.383 99.1622C213.305 101.092 213.149 103.079 213.071 105.18C212.604 112.617 212.06 121.075 213.694 128.115C215.562 136.176 220.075 141.172 227.468 143.386C231.437 144.578 235.172 145.146 238.596 145.146C244.822 145.146 250.114 143.159 253.927 139.412C260.386 133.054 261.943 122.097 257.818 112.219C248.869 90.9874 227.468 78.3277 195.717 64.7597C171.593 54.4844 151.282 51.2485 132.839 49.3751C131.438 49.2048 130.193 49.148 128.948 49.148C121.243 49.148 117.586 51.9865 112.994 55.6198C111.205 56.9822 109.415 58.4583 107.08 59.9343C104.434 61.6374 102.177 62.6592 100.154 63.5675C96.8856 65.0436 94.0841 66.2925 91.0491 69.6419C84.9013 76.3408 93.1502 80.4282 101.788 84.7427C106.38 87.0135 111.127 89.3978 113.617 92.1795C129.57 109.778 123.111 128.569 111.827 140.32C108.559 143.67 103.889 146.849 98.8311 150.198C92.6833 154.286 86.3798 158.543 82.7223 163.255C81.1659 165.299 80.699 166.662 81.3993 167.456C81.8663 168.024 82.9557 168.308 84.59 168.308C87.5471 168.308 92.2942 167.4 97.8194 166.378C105.524 164.902 115.096 163.085 123.578 163.085C128.092 163.085 131.905 163.596 135.018 164.618C138.13 165.64 140.698 167.116 143.267 168.535C147.391 170.919 151.36 173.133 156.885 173.133C157.508 173.133 158.13 173.133 158.675 173.077ZM135.173 164.448C131.983 163.369 128.247 162.858 123.656 162.858C115.173 162.858 105.524 164.675 97.8194 166.151C92.372 167.172 87.625 168.081 84.6678 168.081C83.1114 168.081 82.0997 167.797 81.6328 167.286C81.0102 166.548 81.4772 165.186 82.9557 163.255C86.5355 158.543 92.9167 154.342 98.9867 150.255C103.967 146.906 108.714 143.727 111.983 140.377C118.597 133.508 122.566 125.674 123.345 117.726C124.201 108.643 121.01 100.014 113.85 92.066C111.282 89.2275 106.535 86.8432 101.944 84.5724C93.3837 80.3146 85.2904 76.2272 91.2825 69.6987C94.3175 66.3493 97.119 65.1003 100.31 63.6811C102.333 62.7728 104.668 61.7509 107.314 60.0478C109.57 58.5718 111.438 57.1526 113.228 55.7333C117.819 52.1568 121.477 49.3183 129.025 49.3183C130.193 49.3183 131.516 49.3751 132.839 49.5454C151.204 51.4188 171.515 54.5979 195.64 64.93C227.312 78.498 248.713 91.1009 257.662 112.276C261.787 122.097 260.231 132.997 253.849 139.355C250.114 143.045 244.822 145.032 238.674 145.032C235.25 145.032 231.593 144.465 227.624 143.272C220.309 141.115 215.873 136.176 214.005 128.115C212.371 121.075 212.916 112.673 213.383 105.18C213.538 103.079 213.616 101.092 213.694 99.1622C214.005 90.8738 210.892 83.9479 204.667 79.236C198.986 74.9215 190.737 72.5939 181.554 72.5939C169.336 72.5939 156.963 76.5678 147.624 83.5505C141.944 87.8083 138.364 92.1795 136.807 96.9482C135.407 101.206 135.64 105.691 137.586 110.63C141.088 119.826 149.57 129.023 158.519 138.731C161.632 142.137 164.901 145.6 167.858 149.12C174.706 157.124 173.539 162.801 171.36 166.094C168.947 169.727 164.045 172.339 158.753 172.793C158.13 172.849 157.585 172.849 156.963 172.849C151.515 172.849 147.624 170.635 143.5 168.308C140.854 167.002 138.286 165.526 135.173 164.448Z" fill="white"/>
</g>
<g style="mix-blend-mode:overlay">
<path d="M163.813 166.037C165.836 164.958 167.081 163.425 167.393 161.552C168.327 155.988 161.556 147.814 155.408 142.534C147.782 135.949 140.233 128.909 136.576 122.097C136.42 121.756 136.109 120.791 135.798 119.599C134.63 115.568 132.607 108.813 129.728 108.813C129.494 108.813 129.183 108.87 128.949 108.983C127.782 109.494 127.393 110.516 127.86 112.105C128.249 113.411 129.105 114.887 129.883 116.193C130.739 117.555 131.44 118.804 131.44 119.485C131.44 121.245 130.272 121.983 129.183 122.778C128.327 123.346 127.471 123.97 127.16 124.992C126.771 126.355 127.549 127.376 128.249 128.342C128.95 129.25 129.65 130.158 129.416 131.407C129.027 133.621 119.378 141.626 110.895 148.665C103.891 154.512 97.8214 159.565 97.8992 160.53C97.8992 160.587 97.977 160.644 97.977 160.7C98.5217 161.041 99.6112 161.211 101.245 161.211C103.736 161.211 107.238 160.814 111.284 160.303C116.187 159.735 121.79 159.054 126.615 159.054C130.35 159.054 133.23 159.451 135.253 160.246C136.342 160.7 137.588 161.211 138.911 161.779C144.747 164.22 151.907 167.286 158.054 167.286C160.233 167.342 162.179 166.888 163.813 166.037ZM135.253 160.133C133.152 159.338 130.35 158.94 126.537 158.94C121.712 158.94 116.109 159.565 111.206 160.189C107.16 160.644 103.658 161.098 101.168 161.098C99.6112 161.098 98.5996 160.927 98.0548 160.587C98.0548 160.587 98.0548 160.587 98.0548 160.53C97.977 159.622 104.28 154.399 110.973 148.779C119.455 141.682 129.183 133.678 129.572 131.407C129.806 130.158 129.105 129.193 128.405 128.228C127.627 127.206 126.926 126.298 127.315 124.992C127.627 123.97 128.405 123.459 129.261 122.835C130.35 122.04 131.518 121.245 131.595 119.429C131.595 118.691 130.895 117.499 130.039 116.079C129.261 114.774 128.405 113.298 128.016 112.049C127.549 110.573 127.86 109.608 128.949 109.097C129.183 108.983 129.416 108.926 129.65 108.926C132.374 108.926 134.397 115.852 135.486 119.599C135.876 120.848 136.109 121.756 136.342 122.097C140.078 128.909 147.626 135.949 155.253 142.534C161.323 147.757 168.093 155.875 167.159 161.382C166.848 163.255 165.681 164.731 163.735 165.753C162.179 166.604 160.233 167.002 157.977 167.002C151.907 167.002 144.747 163.936 138.988 161.495C137.588 161.098 136.42 160.587 135.253 160.133Z" fill="white"/>
</g>
<g style="mix-blend-mode:overlay">
<path d="M227.625 112.219C226.846 121.075 230.348 127.207 233.85 129.988C235.485 131.237 237.274 131.918 238.831 131.918C241.088 131.918 242.8 130.613 243.656 128.285C248.947 113.071 230.893 97.0617 228.636 95.6993C228.014 95.3019 227.547 95.2451 227.236 95.4722C226.691 95.8696 226.846 97.232 227.158 99.7299C227.547 102.625 228.092 107.053 227.625 112.219ZM227.547 95.6993C227.625 95.6425 227.625 95.6425 227.703 95.6425C227.78 95.6425 228.014 95.6993 228.403 95.9263C230.582 97.232 248.558 113.128 243.267 128.172C242.488 130.386 240.932 131.635 238.831 131.635C237.352 131.635 235.64 130.953 234.084 129.761C230.582 127.036 227.158 121.019 227.936 112.219C228.403 106.996 227.858 102.625 227.547 99.6731C227.391 97.5727 227.158 95.9831 227.547 95.6993Z" fill="white"/>
</g>
<g style="mix-blend-mode:overlay">
<path d="M322.566 12.3605C316.496 12.3605 309.726 13.212 302.566 14.0636C294.006 15.1422 285.212 16.2208 275.64 16.2208C274.94 16.2208 274.24 16.2208 273.539 16.2208C272.995 16.2208 272.372 16.2208 271.827 16.1641C270.349 16.1073 269.026 16.1073 267.703 16.1073C259.454 16.1073 254.318 17.3562 250.894 23.828C248.792 27.9154 246.302 32.5705 240.543 35.5793C238.909 36.4309 237.275 37.1689 235.796 37.7934C232.45 39.2694 229.804 40.4615 229.649 42.0511C229.571 43.5271 231.594 45.3437 236.341 47.8416C240.855 50.2827 244.59 51.4181 247.703 51.4181C248.014 51.4181 248.248 51.4181 248.559 51.4181C253.073 51.1343 256.185 48.3525 259.999 44.8896C261.788 43.3 263.734 41.5402 266.069 39.8371C276.185 32.457 288.559 27.0639 302.022 24.2821C307.702 23.09 313.228 22.5223 318.597 22.5223C331.827 22.5223 342.021 26.042 350.504 30.0727V29.8456C342.021 25.8149 331.827 22.352 318.597 22.352C313.228 22.352 307.625 22.9764 301.944 24.1118C288.481 26.8935 276.03 32.2867 265.913 39.7235C263.578 41.4266 261.555 43.2433 259.843 44.776C256.03 48.239 252.995 50.9072 248.559 51.2478C248.326 51.2478 248.014 51.2478 247.703 51.2478C244.59 51.2478 240.933 50.0556 236.497 47.6713C231.828 45.1734 229.804 43.4703 229.882 41.9943C229.96 40.4615 232.606 39.3261 235.874 37.8501C237.353 37.2257 238.987 36.4876 240.621 35.6361C246.458 32.6273 248.948 27.9154 251.049 23.828C254.396 17.413 259.454 16.2208 267.625 16.2208C268.948 16.2208 270.349 16.2208 271.749 16.2776C272.294 16.2776 272.839 16.2776 273.461 16.3344C274.162 16.3344 274.862 16.3344 275.563 16.3344C285.212 16.3344 294.006 15.2557 302.566 14.1771C309.726 13.2688 316.418 12.474 322.488 12.474C325.99 12.474 329.103 12.7579 331.905 13.3256C337.975 14.5745 344.122 16.6182 350.504 19.0593V18.889C344.122 16.5047 337.975 14.461 331.982 13.212C329.181 12.6443 326.068 12.3605 322.566 12.3605Z" fill="white"/>
</g>
<g style="mix-blend-mode:overlay">
<path d="M221.632 111.708C220.698 120.337 223.033 127.32 228.169 131.35C230.892 133.451 234.161 134.643 237.429 134.643C242.176 134.643 245.912 132.259 247.001 128.569C250.27 117.782 245.211 108.018 240.386 101.773C234.706 94.45 227.468 89.2272 223.966 87.5241C222.721 86.8996 221.787 86.5023 221.243 86.5023C221.009 86.5023 220.854 86.559 220.776 86.6726C220.309 87.07 220.542 88.0918 220.854 90.1923C221.554 93.8256 222.799 100.751 221.632 111.708ZM221.009 86.7293C221.087 86.6726 221.165 86.6158 221.32 86.6158C221.787 86.6158 222.721 87.0132 223.889 87.5809C231.748 91.4412 252.76 108.926 246.846 128.455C245.756 132.088 242.099 134.416 237.429 134.416C234.161 134.416 230.97 133.281 228.324 131.18C223.266 127.149 220.931 120.224 221.787 111.708C222.955 100.751 221.71 93.8256 221.087 90.1355C220.776 88.2054 220.62 87.07 221.009 86.7293Z" fill="white"/>
</g>
<g style="mix-blend-mode:overlay">
<path d="M217.119 112.276C216.185 123.005 219.064 131.464 225.056 136.119C228.169 138.504 231.905 139.809 235.951 139.809C243.655 139.809 250.192 135.268 252.216 128.512C255.173 118.521 252.605 108.699 244.667 99.3324C236.574 89.795 225.368 83.6639 219.375 80.8254C216.34 79.4061 215.018 78.7817 214.551 79.2358C214.162 79.5765 214.395 80.6551 214.94 82.6988C216.107 87.0701 218.442 96.3236 217.119 112.276ZM214.706 79.2926C214.784 79.2358 214.862 79.2358 215.018 79.2358C215.64 79.2358 217.041 79.8603 219.298 80.9389C239.142 90.3627 258.208 107.791 252.06 128.455C250.037 135.154 243.655 139.639 236.029 139.639C232.06 139.639 228.325 138.39 225.29 136.006C219.298 131.407 216.574 122.949 217.43 112.276C218.753 96.3236 216.34 87.0701 215.173 82.5853C214.628 80.7119 214.395 79.5765 214.706 79.2926Z" fill="white"/>
</g>
<g style="mix-blend-mode:overlay">
<path d="M127.547 76.6241C129.726 76.6241 131.361 75.0913 132.995 72.7637C135.952 68.6763 142.1 66.7461 145.446 65.6675C147.158 65.1566 147.781 64.9295 147.703 64.5889C147.625 64.305 147.236 64.1915 144.901 64.0779C137.975 63.7373 122.567 68.506 120.777 72.1393C120.388 72.9908 120.699 73.7288 121.633 74.3533C124.279 75.9428 126.069 76.6241 127.547 76.6241ZM121.244 72.3096C122.878 69.0169 137.275 64.4753 144.123 64.4753C144.357 64.4753 144.59 64.4753 144.824 64.4753C146.147 64.5321 146.769 64.5889 147.003 64.6456C146.691 64.8159 145.913 65.043 145.213 65.2701C141.866 66.3487 135.563 68.3357 132.528 72.5366C130.582 75.1481 129.182 76.2267 127.547 76.2267C126.147 76.2267 124.512 75.5454 121.944 74.0127C121.166 73.5585 120.933 72.9908 121.244 72.3096Z" fill="white"/>
</g>
<g style="mix-blend-mode:overlay">
<path d="M134.396 76.4541C139.688 69.4146 149.415 66.9735 157.197 65.611C157.976 65.4975 158.054 65.2136 157.976 65.0433C157.82 63.9079 150.427 61.6939 139.454 61.6939C138.209 61.6939 136.964 61.6939 135.719 61.7507C130.739 61.9778 118.91 67.087 114.63 70.8339C113.54 71.7989 112.996 72.6505 113.151 73.275C113.462 74.8645 115.33 75.5457 117.587 76.3405C119.922 77.1921 122.567 78.1572 123.89 80.4279C124.669 81.7337 125.602 82.4149 126.848 82.4149C128.871 82.3581 131.361 80.3712 134.396 76.4541ZM124.279 80.2576C122.957 77.9301 120.233 76.9082 117.82 76.0567C115.719 75.2619 113.852 74.6374 113.618 73.2182C113.54 72.7073 114.007 71.9125 115.019 71.0042C119.221 67.2574 130.894 62.2616 135.797 62.0345C137.042 61.9778 138.287 61.9778 139.532 61.9778C150.271 61.9778 157.509 64.135 157.664 65.0433C157.664 65.2136 157.353 65.2704 157.197 65.3272C149.26 66.6897 139.454 69.1875 134.085 76.3405C129.571 82.2446 126.225 83.6638 124.279 80.2576Z" fill="white"/>
</g>
<g style="mix-blend-mode:overlay">
<path d="M236.73 125.106C237.119 125.106 237.508 124.879 237.819 124.481C239.298 122.381 239.298 115.228 235.251 110.857C234.707 110.289 234.006 110.346 233.384 111.084C231.905 112.957 231.205 119.031 235.329 124.254C235.874 124.822 236.263 125.106 236.73 125.106ZM233.928 111.311C234.162 111.084 234.317 110.913 234.473 110.913C234.629 110.913 234.784 111.027 234.784 111.14C238.598 115.341 238.753 122.381 237.275 124.368C237.119 124.652 236.886 124.765 236.652 124.765C236.419 124.765 236.107 124.538 235.796 124.141C231.905 119.031 232.528 113.071 233.928 111.311Z" fill="white"/>
</g>
<g style="mix-blend-mode:overlay">
<path d="M287.39 142.535C287.935 143.102 289.336 143.386 291.904 143.386C293.538 143.386 295.483 143.273 297.74 143.159C300.542 143.046 303.732 142.875 307.001 142.875C317.429 142.875 324.433 144.465 329.102 147.984C333.46 150.426 335.872 154.399 337.973 157.919C340.541 162.177 342.798 165.867 347.701 165.867C348.246 165.867 348.79 165.81 349.335 165.753C349.724 165.697 350.113 165.64 350.502 165.526V165.243C350.035 165.356 349.646 165.413 349.257 165.47C348.712 165.526 348.168 165.583 347.701 165.583C343.032 165.583 340.853 161.95 338.362 157.806C336.261 154.286 333.771 150.255 329.413 147.757C324.666 144.238 317.584 142.591 307.079 142.591C303.81 142.591 300.62 142.762 297.818 142.875C295.561 142.989 293.616 143.102 291.981 143.102C289.569 143.102 288.246 142.875 287.779 142.364C287.546 142.08 287.546 141.74 287.779 141.286C292.76 131.635 296.884 119.429 296.495 115.626C295.795 109.04 291.826 102.796 288.013 96.7781C283.343 89.398 278.908 82.4721 281.709 76.6816C285.6 68.6203 303.499 54.5981 313.226 53.633C313.693 53.5763 314.238 53.5763 314.783 53.5763C322.331 53.5763 335.639 57.4934 350.736 64.0219V63.6813C335.717 57.2095 322.409 53.2924 314.783 53.2924C314.238 53.2924 313.693 53.2924 313.149 53.3492C303.343 54.3143 285.289 68.45 281.32 76.568C278.441 82.4721 282.954 89.5116 287.624 96.8916C291.437 102.909 295.406 109.097 296.106 115.626C296.495 118.918 292.76 130.783 287.468 141.172C287.001 141.74 287.001 142.194 287.39 142.535Z" fill="white"/>
</g>
<g style="mix-blend-mode:overlay">
<path d="M322.565 16.2779C316.962 16.2779 310.425 17.0727 303.499 17.9242C294.783 19.0028 285.678 20.1382 275.639 20.1382C274.939 20.1382 274.16 20.1382 273.46 20.1382L271.748 20.0815C270.347 20.0815 269.024 20.0247 267.779 20.0247C256.884 20.0247 256.339 24.396 255.795 29.0511C255.483 31.6057 255.172 34.2172 253.227 36.4312C252.526 37.226 250.736 38.2478 248.791 39.3264C244.666 41.5972 239.919 44.1519 242.176 46.593C243.11 47.6148 244.277 48.1825 245.678 48.1825C246.378 48.1825 247.234 48.0122 248.013 47.7284C251.67 46.3659 255.639 42.2217 258.752 38.9291C260.542 37.0556 262.098 35.4661 262.954 35.0687C263.81 34.6713 264.822 34.6145 265.678 34.6145C265.989 34.6145 266.378 34.6145 266.69 34.6145C267.001 34.6145 267.39 34.6145 267.701 34.6145C268.946 34.6145 270.347 34.501 271.592 33.7062C273.071 32.7411 273.226 31.4354 273.46 30.2433C273.616 29.1646 273.771 28.086 274.783 27.2345C277.818 24.5663 288.479 22.7497 295.483 21.5007C297.584 21.1601 299.374 20.8195 300.697 20.5356C306.845 19.2299 312.915 18.6055 318.751 18.6055C331.747 18.6055 342.175 21.7278 350.658 25.4178V25.0772C342.175 21.3872 331.747 18.2648 318.751 18.2648C312.837 18.2648 306.767 18.9461 300.541 20.195C299.218 20.4789 297.429 20.7627 295.327 21.1601C287.779 22.4658 277.507 24.2257 274.394 26.9506C273.304 27.9157 273.149 29.0511 272.993 30.1297C272.837 31.3787 272.682 32.5141 271.281 33.4224C270.191 34.1604 268.869 34.2739 267.701 34.2739C267.39 34.2739 267.001 34.2739 266.69 34.2739C266.378 34.2739 265.989 34.2739 265.678 34.2739C264.744 34.2739 263.732 34.3307 262.721 34.7281C261.787 35.1255 260.308 36.715 258.441 38.6452C255.483 41.7675 251.437 45.9685 247.779 47.331C245.6 48.1825 243.888 47.8419 242.487 46.3091C240.464 44.0951 244.978 41.654 249.024 39.44C251.125 38.3046 252.838 37.3395 253.616 36.488C255.561 34.2172 255.873 31.549 256.262 28.9943C256.806 24.2824 257.351 20.2518 267.857 20.2518C269.102 20.2518 270.425 20.2518 271.826 20.3086L273.538 20.3653C274.238 20.3653 275.016 20.3653 275.717 20.3653C285.833 20.3653 294.861 19.2299 303.654 18.1513C310.58 17.2998 317.039 16.505 322.642 16.505C325.6 16.505 328.245 16.7321 330.502 17.243C336.884 18.5487 343.576 20.933 350.58 23.658V23.3174C343.576 20.6492 336.961 18.2648 330.58 16.9591C328.168 16.505 325.6 16.2779 322.565 16.2779Z" fill="white"/>
</g>
<g style="mix-blend-mode:overlay">
<path d="M299.141 135.154C300.62 136.687 303.655 136.857 307.857 137.084C308.324 137.084 308.791 137.141 309.258 137.141C310.581 137.198 311.981 137.254 313.46 137.311C320.308 137.482 328.168 137.652 335.172 142.364L335.25 142.421C339.141 144.918 341.475 149.29 343.499 153.207C345.6 157.124 347.312 160.473 350.191 160.473C350.269 160.473 350.347 160.473 350.425 160.473V160.303C350.347 160.303 350.269 160.303 350.191 160.303C347.545 160.303 345.756 156.954 343.732 153.15C341.709 149.233 339.374 144.862 335.405 142.307V142.193C328.324 137.482 320.464 137.254 313.538 137.084C312.059 137.027 310.659 137.027 309.336 136.914C308.869 136.857 308.402 136.857 307.935 136.857C303.733 136.63 300.775 136.46 299.375 134.984C298.052 133.621 298.285 131.01 299.997 126.639C301.631 122.551 302.176 118.861 301.787 115.285C301.009 107.961 296.807 101.433 292.76 95.0745C288.558 88.4324 284.589 82.1878 286.612 77.93C290.114 70.777 306.845 58.1741 313.771 57.4929C313.927 57.4929 314.16 57.4361 314.627 57.4361C320.464 57.4361 333.538 60.9558 350.58 68.563V68.3927C333.616 60.7855 320.464 57.3226 314.627 57.3226C314.238 57.3226 313.927 57.3226 313.771 57.3793C306.768 58.0606 289.881 70.777 286.379 77.93C284.277 82.3013 288.246 88.546 292.526 95.2448C296.573 101.546 300.698 108.132 301.476 115.398C301.865 118.975 301.242 122.665 299.686 126.695C297.896 131.18 297.74 133.678 299.141 135.154Z" fill="white"/>
</g>
<g style="mix-blend-mode:overlay">
<path d="M157.197 186.474C168.793 185.509 182.567 175.46 186.302 167.796C192.761 154.456 181.322 143.726 170.271 133.337C159.61 123.346 149.571 113.865 154.474 102.341C158.754 92.2926 172.528 86.8995 183.345 86.8995C189.181 86.8995 194.162 88.4323 197.508 91.1572C201.477 94.3931 203.034 99.3321 202.022 105.406C198.52 126.298 197.508 149.176 229.492 155.932C233.15 156.726 236.808 157.124 240.232 157.124C253.695 157.124 262.255 151.504 267.08 146.792C276.34 137.765 279.531 124.197 275.095 113.127C271.282 103.703 263.811 94.6202 252.216 85.2532C235.018 71.3446 211.594 59.3661 180.543 48.6934L179.22 48.2393C166.147 43.7544 152.684 39.0993 138.52 36.5447C137.664 36.3744 136.731 36.2041 135.719 36.0338C131.361 35.1822 125.836 34.1036 121.166 34.1036C119.299 34.1036 117.665 34.2739 116.342 34.6145C114.318 35.1254 113.151 36.1473 112.062 37.1124C111.205 37.8504 110.427 38.5884 109.182 39.1561C108.404 39.4967 106.848 39.9509 105.213 40.405C102.567 41.143 99.8437 41.9378 98.9877 42.619C97.3534 44.0383 97.8204 44.8898 98.2095 45.7414C98.5208 46.3091 98.832 46.8768 98.4429 47.7283L98.1317 48.4096C95.797 53.4621 95.797 53.4621 90.3496 54.5975C89.338 54.8246 88.015 55.1084 86.4586 55.449C81.945 56.4709 80.1551 58.1172 78.3653 59.65C76.9645 60.8422 75.7194 61.9776 73.307 62.8859C73.2291 62.8859 73.1513 62.8859 73.0735 62.8859C70.272 62.8859 49.027 63.9077 47.3928 67.7113C46.9259 68.7332 47.9375 69.8686 50.1943 71.004C53.0737 72.48 55.3305 72.6503 56.7312 72.6503C57.4316 72.6503 58.0542 72.5935 58.5989 72.5367C59.1437 72.48 59.6106 72.48 60.0775 72.48C61.7895 72.48 63.5016 72.8206 65.914 77.0783C66.4588 78.1002 66.9257 79.0085 67.3148 79.6897C69.1825 83.2095 69.1825 83.2662 73.8517 84.6855C75.019 85.0261 76.4198 85.4803 78.2875 86.1047C84.2796 88.1484 85.5248 90.4192 87.0812 93.3145C87.9372 94.8473 88.871 96.6072 90.5831 98.5373C92.4508 100.638 94.7076 102.341 96.8087 103.93C100.622 106.826 104.202 109.551 105.369 114.092C107.314 121.983 101.478 129.534 94.8632 136.516C91.6726 139.923 85.0578 143.84 77.9762 147.984C66.1475 155.137 52.6846 163.141 52.6067 170.578C52.6067 174.836 54.0853 178.072 57.0425 180.229C60.311 182.613 65.2136 183.749 72.0618 183.749C82.0228 183.749 94.3185 181.308 105.135 179.15C113.696 177.447 121.011 175.971 125.758 175.971C126.847 175.971 127.703 176.028 128.404 176.198C132.917 177.164 136.575 179.264 139.999 181.308C144.59 183.976 148.948 186.531 155.252 186.531C155.952 186.531 156.575 186.531 157.197 186.474ZM128.637 175.801C127.859 175.631 126.925 175.574 125.836 175.574C121.089 175.574 113.696 177.05 105.135 178.753C94.3185 180.91 82.1007 183.351 72.2175 183.351C65.4471 183.351 60.7001 182.216 57.5872 179.945C54.7079 177.845 53.3071 174.666 53.3071 170.578C53.3849 163.312 66.77 155.364 78.5209 148.381C85.5248 144.18 92.2173 140.263 95.4858 136.8C102.178 129.761 108.093 122.154 106.147 114.092C104.98 109.437 101.322 106.655 97.4313 103.703C95.3301 102.114 93.0733 100.411 91.2056 98.367C89.4936 96.4368 88.5597 94.7337 87.7037 93.201C86.0695 90.1922 84.8244 87.8646 78.5987 85.7641C76.7311 85.1396 75.3303 84.6855 74.163 84.3449C69.6494 82.9256 69.6494 82.9256 67.8595 79.5762C67.4704 78.8382 67.0035 77.9866 66.4588 76.9648C64.202 72.8774 62.4121 72.0826 60.1553 72.0826C59.6884 72.0826 59.1436 72.1394 58.6767 72.1394C58.0542 72.1961 57.5094 72.1961 56.809 72.1961C55.3304 72.1961 53.3849 72.0258 50.5834 70.6066C48.4823 69.5279 47.6262 68.5629 47.9375 67.7113C49.3383 64.4187 69.1825 63.1697 73.0735 63.1697C73.1513 63.1697 73.2291 63.1697 73.2291 63.1697L73.307 62.9994L73.4626 63.1697C76.0307 62.2046 77.4314 61.0125 78.8322 59.8203C80.6221 58.2307 82.3341 56.7547 86.6921 55.7329C88.2485 55.3923 89.5714 55.1084 90.5831 54.8813C96.264 53.6892 96.3418 53.6324 98.7542 48.4096L99.0655 47.7283C99.5324 46.7632 99.1433 46.082 98.832 45.4575C98.4429 44.6628 98.0538 43.9815 99.5324 42.7894C100.311 42.1081 103.112 41.3701 105.525 40.6889C107.159 40.2347 108.715 39.7806 109.571 39.4399C110.894 38.8722 111.75 38.0775 112.606 37.3395C113.696 36.3744 114.785 35.4661 116.653 34.9551C117.898 34.6145 119.454 34.4442 121.322 34.4442C125.914 34.4442 131.361 35.5228 135.719 36.3176C136.731 36.4879 137.664 36.715 138.52 36.8285C152.684 39.3832 166.147 44.0383 179.143 48.5231L180.466 48.9773C211.438 59.65 234.784 71.5717 251.905 85.4235C263.422 94.7337 270.893 103.817 274.628 113.127C279.064 124.084 275.873 137.481 266.691 146.451C261.944 151.106 253.461 156.613 240.232 156.613C236.808 156.613 233.228 156.215 229.648 155.477C198.131 148.835 199.142 126.127 202.567 105.406C203.578 99.2186 202.022 94.166 197.975 90.8166C194.551 87.9781 189.337 86.4454 183.423 86.4454C172.45 86.4454 158.442 91.952 154.084 102.171C149.104 113.865 159.765 123.857 170.038 133.508C181.01 143.783 192.294 154.456 185.991 167.569C182.333 175.12 168.793 185.055 157.353 185.963C156.73 186.02 156.108 186.02 155.485 186.02C149.415 186.02 145.135 183.522 140.622 180.854C136.886 178.98 133.229 176.823 128.637 175.801Z" fill="white"/>
</g>
<g style="mix-blend-mode:overlay">
<path d="M170.661 0.666662C173.307 0.666662 176.264 0.212502 178.832 -0.241655C180.155 -0.468735 181.4 -0.639044 182.412 -0.752583C184.279 -0.922894 186.147 -1.03643 187.859 -1.0932C191.517 -1.26351 195.019 -1.37705 197.742 -2.51245C199.999 -3.42076 201.556 -4.95355 202.723 -7.16757C204.746 -11.1415 207.159 -15.5695 210.661 -19.9976H210.427C206.925 -15.6263 204.513 -11.1982 202.489 -7.22434C201.4 -5.06709 199.844 -3.59107 197.665 -2.68276C194.941 -1.54736 191.517 -1.43382 187.859 -1.26351C186.069 -1.20674 184.279 -1.0932 182.334 -0.922892C181.322 -0.809353 180.077 -0.639044 178.754 -0.411964C176.186 -0.014576 173.307 0.496353 170.661 0.496353C168.093 0.496353 166.303 0.0421944 165.058 -0.922892C162.179 -3.19369 163.657 -8.41651 164.435 -11.255L164.591 -11.7092C165.447 -14.945 166.848 -17.67 168.871 -20.0543H168.56C166.614 -17.7268 165.214 -14.945 164.357 -11.7659L164.202 -11.3118C163.424 -8.47328 161.945 -3.19369 164.902 -0.866123C166.07 0.212503 168.015 0.666662 170.661 0.666662Z" fill="white"/>
</g>
<g style="mix-blend-mode:overlay">
<path d="M230.893 -19.9979H230.348C229.415 -19.2599 228.558 -18.5787 227.936 -17.9542C219.376 -9.43874 215.562 -1.6045 216.263 6.05943C216.574 9.01146 216.029 10.9984 214.706 12.077C213.85 12.7583 212.683 13.0989 211.049 13.0989C208.792 13.0989 205.991 12.4744 203.033 11.7932C200.388 11.1687 197.586 10.5442 194.94 10.3739C192.995 10.2036 190.971 10.1469 188.948 10.1469C182.333 10.1469 176.108 10.8849 169.493 11.7364C168.403 11.8499 167.236 12.0203 166.147 12.1338H166.069C163.734 12.4176 161.088 12.7015 158.52 12.7015C153.695 12.7015 150.582 11.5093 149.026 9.12499C145.835 4.07248 146.691 -2.00189 147.47 -7.33825C147.547 -8.07626 147.703 -8.7575 147.781 -9.49551C148.326 -13.4126 149.26 -16.8756 150.582 -19.9979H150.193C148.87 -16.8756 147.937 -13.4126 147.392 -9.49551C147.314 -8.81427 147.158 -8.07626 147.081 -7.33825C146.302 -1.94512 145.369 4.18602 148.637 9.29531C150.271 11.8499 153.462 13.0421 158.52 13.0421C161.088 13.0421 163.812 12.7015 166.147 12.4744H166.224C167.314 12.3609 168.481 12.1906 169.571 12.077C176.185 11.2822 182.411 10.4875 189.026 10.4875C191.127 10.4875 193.072 10.5442 195.018 10.7146C197.586 10.9416 200.388 11.5661 203.033 12.1338C205.991 12.815 208.87 13.4395 211.127 13.4395C212.839 13.4395 214.162 13.0989 215.096 12.3041C216.496 11.1687 217.041 9.125 216.73 6.05943C215.952 -1.54773 219.765 -9.3252 228.325 -17.7839C228.87 -18.4651 229.804 -19.2031 230.893 -19.9979Z" fill="white"/>
</g>
<g style="mix-blend-mode:overlay">
<path d="M228.325 23.0333C225.679 24.3958 222.099 25.077 217.274 25.077C211.671 25.077 205.368 24.1687 199.765 23.3739C196.496 22.9198 193.383 22.4656 190.893 22.2386C189.648 22.125 186.302 21.8979 182.255 21.8979C174.706 21.8979 164.979 22.6359 161.71 26.2124C160.31 27.7452 160.232 29.7322 161.555 32.003C162.177 33.0816 163.734 33.6493 165.29 34.217C166.535 34.6711 167.78 35.1253 168.481 35.8065C169.337 36.6013 169.804 37.7935 170.271 38.8721C170.893 40.3481 171.516 41.8809 172.994 42.7892C174.784 43.9246 176.808 44.4356 179.298 44.4356C181.01 44.4356 182.8 44.2085 184.512 43.9246C186.224 43.6975 187.936 43.4137 189.57 43.4137C191.204 43.4137 192.605 43.6408 193.85 44.1517C196.963 45.2871 198.208 46.8767 199.531 48.4094C201.165 50.3964 202.722 52.2698 207.858 53.1213C218.519 54.938 221.477 56.8681 228.558 61.4665C229.492 62.0342 230.426 62.7154 231.515 63.3967C234.083 65.043 235.951 66.9164 237.741 68.6763C239.375 70.2658 241.009 71.9689 243.188 73.4449C245.834 75.3183 248.325 76.1131 250.737 76.9647C253.928 78.0433 257.04 79.0651 259.764 82.5281L260.231 83.0958C263.733 87.4671 267.235 91.5545 269.414 91.5545C269.725 91.5545 270.036 91.4409 270.27 91.2706C271.048 90.6462 271.282 88.9998 270.892 86.2181C270.659 84.5718 269.103 83.1526 267.546 81.7333C265.834 80.2005 264.278 78.7813 264.356 77.1917C264.433 75.3183 266.068 74.3532 267.702 73.3882C268.947 72.6501 270.192 71.9121 270.892 70.7767C272.682 67.995 273.071 65.4972 273.538 63.0561C274.083 59.7066 274.628 56.5275 278.752 52.951C286.145 46.536 296.495 41.6538 307.857 39.2695C311.67 38.4747 315.172 38.0773 318.596 38.0773C330.269 38.0773 338.596 42.6757 347.468 47.6147C348.479 48.1824 349.491 48.7501 350.503 49.261V48.7501C349.569 48.2391 348.713 47.7282 347.779 47.274C338.83 42.3351 330.425 37.6799 318.596 37.6799C315.094 37.6799 311.515 38.0773 307.701 38.8721C296.184 41.2564 285.756 46.1954 278.285 52.6672C274.083 56.3572 273.538 59.5931 272.916 62.9993C272.527 65.3836 272.06 67.8247 270.348 70.5497C269.647 71.6283 268.48 72.3663 267.313 73.0475C265.601 74.0694 263.889 75.0912 263.733 77.1349C263.655 78.8948 265.367 80.4276 267.001 81.9604C268.48 83.3229 270.036 84.7421 270.27 86.2181C270.659 89.5108 270.192 90.5894 269.803 90.9868C269.647 91.1003 269.492 91.1571 269.336 91.1571C267.157 91.1571 262.643 85.3666 260.62 82.9255L260.153 82.3578C257.274 78.7813 254.161 77.7594 250.893 76.6808C248.48 75.886 246.068 75.0912 243.5 73.2746C241.398 71.7986 239.686 70.1523 238.13 68.5627C236.262 66.7461 234.395 64.8727 231.827 63.2263C230.737 62.5451 229.803 61.9206 228.869 61.2962C221.71 56.6411 218.753 54.7109 207.936 52.8942C203.033 52.0427 201.554 50.2828 199.998 48.3527C198.675 46.7631 197.352 45.1736 194.162 43.9814C192.839 43.4705 191.36 43.2434 189.648 43.2434C187.936 43.2434 186.146 43.4705 184.434 43.7543C182.722 43.9814 181.01 44.2652 179.376 44.2652C177.041 44.2652 175.173 43.7543 173.384 42.7325C172.061 41.8809 171.438 40.4617 170.815 38.9856C170.349 37.8502 169.804 36.6581 168.948 35.8065C168.17 35.0118 166.847 34.5576 165.601 34.1034C164.123 33.5357 162.644 33.0248 162.1 32.0597C160.854 29.9025 160.932 28.0858 162.255 26.6098C165.368 23.2036 174.94 22.4656 182.411 22.4656C186.457 22.4656 189.804 22.6927 190.971 22.8062C193.461 22.9766 196.574 23.4307 199.842 23.9416C205.445 24.7364 211.749 25.7015 217.43 25.7015C222.333 25.7015 226.068 25.0203 228.792 23.601C235.64 20.0813 233.616 14.8017 231.749 9.69242C229.725 4.24252 227.624 -1.43446 236.029 -5.1245C237.041 -5.57866 238.364 -5.80574 239.998 -5.80574C244.978 -5.80574 252.06 -3.81879 258.908 -1.88862C264.822 -0.185524 270.503 1.40403 274.161 1.4608C274.706 1.4608 275.25 1.4608 275.717 1.4608C283.577 1.4608 291.515 0.495713 299.219 -0.469374C306.923 -1.43446 314.861 -2.39955 322.643 -2.39955C328.09 -2.39955 333.071 -1.94539 337.74 -0.923532C342.098 -0.0152149 346.378 1.17695 350.58 2.53943V2.08527C346.378 0.722792 342.176 -0.412604 337.896 -1.32092C333.149 -2.28601 328.168 -2.79694 322.643 -2.79694C314.783 -2.79694 306.845 -1.83185 299.141 -0.866763C291.515 0.0983238 283.577 1.06341 275.717 1.06341C275.173 1.06341 274.706 1.06341 274.161 1.06341C270.581 1.00664 265.056 -0.582913 259.142 -2.22924C252.293 -4.15941 245.134 -6.20312 239.998 -6.20312C238.208 -6.20312 236.807 -5.97605 235.718 -5.46512C227.002 -1.60477 229.103 4.18575 231.204 9.80596C232.994 14.7449 234.862 19.6839 228.325 23.0333Z" fill="white"/>
</g>
<g style="mix-blend-mode:overlay">
<path d="M162.179 8.50089C163.813 8.50089 165.758 8.33058 168.638 7.98997C175.875 7.08165 183.112 6.68426 191.284 6.68426C193.385 6.68426 195.486 6.68426 197.743 6.74103C198.521 6.74103 199.221 6.74103 199.844 6.74103C203.657 6.74103 205.836 6.40041 207.47 5.60563C209.416 4.64055 210.583 2.88068 211.361 -0.184887C213.151 -7.22434 216.964 -13.5258 223.501 -20.0543H223.346C216.809 -13.5258 212.995 -7.22434 211.206 -0.184887C210.427 2.82391 209.338 4.52701 207.392 5.49209C205.836 6.28687 203.579 6.62749 199.844 6.62749C199.221 6.62749 198.521 6.62749 197.743 6.62749C195.408 6.57072 193.307 6.57072 191.284 6.57072C183.035 6.57072 175.797 6.96811 168.56 7.87643C165.681 8.21704 163.813 8.38735 162.101 8.38735C157.432 8.38735 154.008 7.25196 152.84 1.63175C151.751 -3.70461 152.685 -9.3816 153.774 -13.1852C154.475 -15.6263 155.331 -17.8971 156.498 -19.9976H156.264C155.097 -17.9538 154.163 -15.683 153.541 -13.2419C152.529 -9.43837 151.517 -3.76138 152.607 1.63175C153.696 6.51395 156.42 8.50089 162.179 8.50089Z" fill="white"/>
</g>
<g style="mix-blend-mode:overlay">
<path d="M165.368 4.24316C166.069 4.24316 166.925 4.18639 167.703 4.07285C173.851 3.33484 180.543 2.88069 187.391 2.76715C189.026 2.71038 190.504 2.76715 191.983 2.76715C192.995 2.76715 193.928 2.82392 194.784 2.82392C197.586 2.82392 200.465 2.65361 202.722 1.51821C204.59 0.553123 205.913 -0.979662 206.769 -3.30722C209.103 -9.49514 212.45 -15.0018 216.963 -20.0543H216.652C212.138 -15.0586 208.792 -9.5519 206.535 -3.36399C205.679 -1.0932 204.434 0.439583 202.566 1.3479C200.387 2.4833 197.508 2.59683 194.784 2.59683C193.851 2.59683 192.917 2.59684 191.983 2.54007C190.504 2.54007 188.948 2.4833 187.391 2.54007C180.543 2.65361 173.851 3.10776 167.703 3.84577C164.123 4.29993 161.477 3.73223 159.843 2.31299C156.108 -1.03643 158.131 -8.47328 159.221 -12.5039C159.999 -15.2857 161.088 -17.8403 162.645 -20.0543H162.411C160.933 -17.7835 159.843 -15.2857 159.065 -12.5039C157.975 -8.47328 155.952 -0.922892 159.765 2.4833C160.933 3.67546 162.878 4.24316 165.368 4.24316Z" fill="white"/>
</g>
</g>
</svg>
