<svg width="20" height="22" viewBox="0 0 20 22" fill="none" xmlns="http://www.w3.org/2000/svg">
<path d="M13.4271 0.619802C13.8222 0.728449 14.1975 0.876603 14.4938 1.18279C14.7704 1.46922 14.9581 1.78529 15.0173 2.18037C15.0371 2.31865 15.0963 2.37791 15.2247 2.39767C16.2223 2.61496 16.9335 3.18783 17.2693 4.1459C17.3977 4.52123 17.5952 4.7484 17.9311 4.95582C18.9681 5.61758 19.5114 6.60528 19.5114 7.83991C19.5213 8.96589 19.0175 9.87458 18.1385 10.566C17.7434 10.8722 17.289 11.0895 16.7853 11.2179C17.4273 11.9488 17.5557 12.7982 17.4273 13.7266C17.0717 13.697 16.7162 13.6674 16.3705 13.6575C15.284 13.6278 14.2173 13.7562 13.2395 14.2896C12.3308 14.7933 11.8764 15.5934 11.7974 16.6107C11.7184 17.5194 11.9159 18.3985 12.1925 19.2578C12.3011 19.6034 12.39 19.9491 12.2913 20.3245C12.1727 20.7591 11.827 21.1541 11.3826 21.3221C11.1554 20.7591 10.9184 20.1961 10.7109 19.6133C10.2665 18.3787 9.9109 17.1144 9.69361 15.8107C9.54545 14.9119 9.46644 14.0131 9.50595 13.1044C9.50595 12.9957 9.56521 12.8673 9.64422 12.7784C10.0196 12.3537 10.5233 12.2056 11.0566 12.1068C11.1949 12.0772 11.3431 12.0772 11.4814 12.0574C11.7283 12.0278 11.8863 11.8796 11.8764 11.6722C11.8666 11.4549 11.6986 11.3067 11.432 11.3265C10.8591 11.366 10.3159 11.4845 9.80226 11.7413C9.74299 11.771 9.68373 11.8006 9.56521 11.8105C9.71336 11.2475 9.84177 10.6845 10.0097 10.1215C10.227 9.42023 10.543 8.76835 10.9677 8.16585C11.027 8.08683 11.1258 8.01769 11.2245 7.99794C12.1332 7.83991 13.032 7.8893 13.9111 8.18561C14.1679 8.2745 14.3654 8.19548 14.4346 7.98807C14.5037 7.77077 14.405 7.59298 14.1383 7.49421C13.4963 7.26704 12.8345 7.16827 12.153 7.16827C12.0443 7.16827 11.9357 7.16827 11.7678 7.16827C11.9554 6.99048 12.1135 6.83245 12.2814 6.69417C12.4888 6.52626 12.7061 6.37811 12.9234 6.22008C13.279 5.9534 13.6741 5.92377 14.0889 6.04229C14.2963 6.10155 14.4938 6.19044 14.7013 6.27934C14.9383 6.37811 15.1359 6.3386 15.2247 6.15094C15.3235 5.9534 15.2544 5.74598 15.0173 5.62745C14.5531 5.3904 14.0691 5.24225 13.5457 5.25213C13.5061 5.25213 13.4666 5.24225 13.3777 5.24225C13.4765 5.03483 13.5654 4.85705 13.6543 4.67926C13.7037 4.58049 13.7629 4.48172 13.7728 4.38295C13.7926 4.21504 13.6938 4.09652 13.5358 4.03725C13.358 3.96812 13.2098 4.03725 13.1111 4.18541C12.8641 4.55086 12.6863 4.94594 12.637 5.39041C12.6271 5.46942 12.5777 5.56819 12.5086 5.61758C11.2542 6.467 10.3554 7.61274 9.71336 8.96589C9.68373 9.02515 9.66398 9.07454 9.62447 9.15355C9.25902 8.92638 9.02197 8.60044 8.9232 8.20536C8.84419 7.88929 8.85406 7.56335 8.7948 7.23741C8.77504 7.10901 8.72566 6.95098 8.63677 6.87196C8.42935 6.69417 8.13304 6.84233 8.08365 7.14852C7.99476 7.77077 8.12316 8.35351 8.42935 8.90663C8.62689 9.2622 8.89357 9.56839 9.23927 9.78568C9.32816 9.84494 9.35779 9.90421 9.31828 10.003C8.81456 11.5833 8.70591 13.213 8.87382 14.8526C8.88369 14.9514 8.89357 15.0403 8.90345 15.139C8.91332 15.2279 8.91333 15.3168 8.9232 15.4057C8.90345 15.4156 8.89357 15.4353 8.87382 15.4452C8.70591 15.2872 8.538 15.139 8.37009 14.981C8.31083 14.9217 8.27132 14.8526 8.22193 14.7835C8.09353 14.6156 7.89599 14.576 7.73796 14.6748C7.57005 14.7835 7.51079 14.981 7.62931 15.1785C7.83673 15.5242 8.12316 15.8107 8.46886 16.028C8.55775 16.0773 8.64664 16.1564 8.73554 16.1761C9.02197 16.2354 9.10099 16.423 9.16025 16.6897C9.45656 18.2701 9.98992 19.7812 10.5924 21.2628C10.6221 21.3418 10.6714 21.4208 10.7109 21.5196C10.4048 21.5887 10.0986 21.569 9.82201 21.4603C9.55533 21.3517 9.25902 21.2134 9.06148 20.9961C8.00464 19.8306 7.01694 18.6256 6.29591 17.2132C5.62427 15.8897 5.32796 14.4871 5.31809 13.0155C5.31809 12.8278 5.25882 12.729 5.10079 12.6303C4.01432 11.9685 3.72789 10.4178 4.51805 9.41036C4.63657 9.2622 4.64645 9.15355 4.57731 8.97577C3.98469 7.37569 4.95264 5.56819 6.62185 5.16324C6.77989 5.12373 6.80952 5.06446 6.80952 4.91631C6.80952 3.7607 7.56017 2.76312 8.67628 2.43717C8.83431 2.38779 8.90345 2.31865 8.94295 2.16062C9.12074 1.38033 9.82201 0.758079 10.6122 0.639554C10.6616 0.629677 10.7011 0.619801 10.7505 0.609924C10.8986 0.609924 11.0468 0.609924 11.2048 0.609924C11.4814 0.708695 11.748 0.817343 12.0246 0.916113C12.0641 0.92599 12.1135 0.935867 12.153 0.916113C12.4295 0.817343 12.6962 0.708695 12.9629 0.609924C13.1012 0.619801 13.2592 0.619802 13.4271 0.619802Z" fill="#666662"/>
<path d="M6.22671 0.619812C6.71068 0.718582 7.14527 0.916124 7.49097 1.2717C7.67863 1.45936 7.83666 1.66678 8.02433 1.88407C7.82679 2.01247 7.649 2.10136 7.48109 2.21989C6.72056 2.76313 6.26621 3.48415 6.09831 4.40271C6.08843 4.48173 5.99953 4.5805 5.93039 4.61013C4.21179 5.34103 3.32286 7.13865 3.7772 8.93627C3.79696 9.02516 3.7772 9.14369 3.73769 9.2227C2.98704 10.5857 3.2636 12.087 4.45872 13.0945C4.52786 13.1538 4.57724 13.2624 4.57724 13.3513C4.62663 15.5638 5.39704 17.5194 6.69093 19.2775C7.06625 19.7812 7.45146 20.2751 7.83666 20.7887C7.79715 20.7788 7.76752 20.7788 7.74777 20.7689C6.81933 20.3146 5.96003 19.7615 5.239 19.001C4.74515 18.4874 4.34019 17.9046 3.9945 17.2824C3.91548 17.1441 3.83647 17.0749 3.66856 17.0453C2.58208 16.8478 1.79192 15.9588 1.69315 14.8625C1.69315 14.823 1.6734 14.7736 1.68327 14.744C1.8018 14.4279 1.61413 14.2501 1.41659 14.0526C0.744955 13.3612 0.369629 12.5315 0.369629 11.5537C0.369629 10.724 0.685693 10.0326 1.36721 9.51902C1.38696 9.49926 1.40672 9.47951 1.42647 9.46963C1.29807 9.15357 1.14004 8.84738 1.04127 8.53131C0.744955 7.57324 0.754833 6.63492 1.30795 5.75587C1.42647 5.57808 1.5845 5.42005 1.74254 5.27189C1.85118 5.17312 1.88081 5.10398 1.84131 4.9657C1.62401 4.25456 1.59438 3.54341 1.85118 2.84214C2.25614 1.73592 3.23397 1.28157 4.35007 1.66678C4.38958 1.68653 4.43896 1.69641 4.47847 1.70629C4.597 1.53838 4.70564 1.37047 4.82417 1.22231C5.1106 0.866738 5.49581 0.708706 5.93039 0.62969C6.02916 0.619813 6.12794 0.619812 6.22671 0.619812Z" fill="#666662"/>
</svg>
