<svg width="15" height="15" viewBox="0 0 15 15" fill="none" xmlns="http://www.w3.org/2000/svg">
<path d="M0 4.5164C0 3.63139 0.3525 2.78958 0.995625 2.14554C2.42375 0.715388 4.96187 0 7.5 0C10.0381 0 12.5762 0.715389 14.0044 2.14617C14.6469 2.78958 15.0006 3.63202 15 4.51702C15 5.37073 14.5362 6.10615 13.8531 6.5136L12.2375 4.21785C11.8725 3.69962 11.365 3.29529 10.77 3.07686C10.0081 2.79709 8.85125 2.48227 7.5 2.48227C6.14875 2.48227 4.99187 2.79709 4.23 3.07686C3.635 3.29529 3.1275 3.69899 2.7625 4.21785L1.14687 6.5136C0.46375 6.10615 0 5.37011 0 4.5164ZM9.375 9.36702C9.375 10.4022 8.53375 11.2447 7.5 11.2447C6.46625 11.2447 5.625 10.4022 5.625 9.36702C5.625 8.3318 6.46625 7.48936 7.5 7.48936C8.53375 7.48936 9.375 8.3318 9.375 9.36702ZM14.9987 12.6198C14.9744 13.9535 13.8387 15 12.5069 15H2.49312C1.18437 15 0.025 13.9304 0.00125 12.6198C-0.018125 11.5664 0.20875 10.5143 0.655625 9.56167C0.7525 9.35575 0.8725 9.1611 1 8.97271L3.57312 5.15793C3.8775 4.70729 4.31562 4.36744 4.83 4.19156C5.48187 3.96812 6.42125 3.73404 7.5 3.73404C8.57312 3.73404 9.51562 3.96937 10.17 4.19344C10.6844 4.36994 11.1244 4.70917 11.4287 5.16044L14.1912 9.25624C14.74 10.2864 15.02 11.4525 14.9987 12.6198ZM10.625 9.36702C10.625 7.64145 9.22312 6.23759 7.5 6.23759C5.77687 6.23759 4.375 7.64145 4.375 9.36702C4.375 11.0926 5.77687 12.4965 7.5 12.4965C9.22312 12.4965 10.625 11.0926 10.625 9.36702Z" fill="#FF9F0A"/>
</svg>
